<mxfile host="app.diagrams.net" agent="Mozilla/5.0 (Windows NT 10.0; Win64; x64) AppleWebKit/537.36 (KHTML, like Gecko) Chrome/126.0.0.0 Safari/537.36" version="24.7.7">
  <diagram id="C5RBs43oDa-KdzZeNtuy" name="Page-1">
    <mxGraphModel dx="4069" dy="2317" grid="1" gridSize="10" guides="1" tooltips="1" connect="1" arrows="1" fold="1" page="1" pageScale="1" pageWidth="1169" pageHeight="827" math="0" shadow="0">
      <root>
        <mxCell id="WIyWlLk6GJQsqaUBKTNV-0" />
        <mxCell id="WIyWlLk6GJQsqaUBKTNV-1" parent="WIyWlLk6GJQsqaUBKTNV-0" />
        <mxCell id="WIyWlLk6GJQsqaUBKTNV-2" value="" style="rounded=0;html=1;jettySize=auto;orthogonalLoop=1;fontSize=11;endArrow=block;endFill=0;endSize=8;strokeWidth=1;shadow=0;labelBackgroundColor=none;edgeStyle=orthogonalEdgeStyle;exitX=1;exitY=0.5;exitDx=0;exitDy=0;entryX=0;entryY=0.5;entryDx=0;entryDy=0;" parent="WIyWlLk6GJQsqaUBKTNV-1" source="viviDab-kj7c0WBg1kO9-1" target="WIyWlLk6GJQsqaUBKTNV-6" edge="1">
          <mxGeometry relative="1" as="geometry">
            <mxPoint x="80" y="115" as="sourcePoint" />
          </mxGeometry>
        </mxCell>
        <mxCell id="WIyWlLk6GJQsqaUBKTNV-4" value="Yes" style="rounded=0;html=1;jettySize=auto;orthogonalLoop=1;fontSize=11;endArrow=block;endFill=0;endSize=8;strokeWidth=1;shadow=0;labelBackgroundColor=none;edgeStyle=orthogonalEdgeStyle;entryX=0.5;entryY=0;entryDx=0;entryDy=0;" parent="WIyWlLk6GJQsqaUBKTNV-1" source="WIyWlLk6GJQsqaUBKTNV-6" target="viviDab-kj7c0WBg1kO9-3" edge="1">
          <mxGeometry y="20" relative="1" as="geometry">
            <mxPoint as="offset" />
            <mxPoint x="80" y="325" as="targetPoint" />
          </mxGeometry>
        </mxCell>
        <mxCell id="WIyWlLk6GJQsqaUBKTNV-5" value="No" style="edgeStyle=orthogonalEdgeStyle;rounded=0;html=1;jettySize=auto;orthogonalLoop=1;fontSize=11;endArrow=block;endFill=0;endSize=8;strokeWidth=1;shadow=0;labelBackgroundColor=none;entryX=0;entryY=0.5;entryDx=0;entryDy=0;" parent="WIyWlLk6GJQsqaUBKTNV-1" source="WIyWlLk6GJQsqaUBKTNV-6" target="viviDab-kj7c0WBg1kO9-2" edge="1">
          <mxGeometry y="10" relative="1" as="geometry">
            <mxPoint as="offset" />
            <mxPoint x="240" y="210" as="targetPoint" />
          </mxGeometry>
        </mxCell>
        <mxCell id="WIyWlLk6GJQsqaUBKTNV-6" value="Does user dir exists" style="rhombus;whiteSpace=wrap;html=1;shadow=0;fontFamily=Helvetica;fontSize=12;align=center;strokeWidth=1;spacing=6;spacingTop=-4;" parent="WIyWlLk6GJQsqaUBKTNV-1" vertex="1">
          <mxGeometry x="180" y="40" width="160" height="110" as="geometry" />
        </mxCell>
        <mxCell id="viviDab-kj7c0WBg1kO9-1" value="START" style="ellipse;whiteSpace=wrap;html=1;fillColor=#d5e8d4;strokeColor=#82b366;" vertex="1" parent="WIyWlLk6GJQsqaUBKTNV-1">
          <mxGeometry x="20" y="55" width="120" height="80" as="geometry" />
        </mxCell>
        <mxCell id="viviDab-kj7c0WBg1kO9-2" value="Create the dir" style="rounded=0;whiteSpace=wrap;html=1;" vertex="1" parent="WIyWlLk6GJQsqaUBKTNV-1">
          <mxGeometry x="380" y="65" width="120" height="60" as="geometry" />
        </mxCell>
        <mxCell id="viviDab-kj7c0WBg1kO9-3" value="Is there any user files" style="rhombus;whiteSpace=wrap;html=1;shadow=0;fontFamily=Helvetica;fontSize=12;align=center;strokeWidth=1;spacing=6;spacingTop=-4;" vertex="1" parent="WIyWlLk6GJQsqaUBKTNV-1">
          <mxGeometry x="180" y="195" width="160" height="110" as="geometry" />
        </mxCell>
        <mxCell id="viviDab-kj7c0WBg1kO9-4" value="Input user information" style="shape=parallelogram;perimeter=parallelogramPerimeter;whiteSpace=wrap;html=1;fixedSize=1;shadow=0;strokeWidth=1;spacing=6;spacingTop=-4;" vertex="1" parent="WIyWlLk6GJQsqaUBKTNV-1">
          <mxGeometry x="380" y="220" width="120" height="60" as="geometry" />
        </mxCell>
        <mxCell id="viviDab-kj7c0WBg1kO9-6" value="No" style="edgeStyle=orthogonalEdgeStyle;rounded=0;html=1;jettySize=auto;orthogonalLoop=1;fontSize=11;endArrow=block;endFill=0;endSize=8;strokeWidth=1;shadow=0;labelBackgroundColor=none;entryX=0;entryY=0.5;entryDx=0;entryDy=0;exitX=1;exitY=0.5;exitDx=0;exitDy=0;" edge="1" parent="WIyWlLk6GJQsqaUBKTNV-1" source="viviDab-kj7c0WBg1kO9-3" target="viviDab-kj7c0WBg1kO9-4">
          <mxGeometry y="10" relative="1" as="geometry">
            <mxPoint as="offset" />
            <mxPoint x="170" y="220" as="sourcePoint" />
            <mxPoint x="240" y="220" as="targetPoint" />
          </mxGeometry>
        </mxCell>
        <mxCell id="viviDab-kj7c0WBg1kO9-7" value="Create user file" style="rounded=0;whiteSpace=wrap;html=1;" vertex="1" parent="WIyWlLk6GJQsqaUBKTNV-1">
          <mxGeometry x="230" y="365" width="120" height="60" as="geometry" />
        </mxCell>
        <mxCell id="viviDab-kj7c0WBg1kO9-9" value="No" style="edgeStyle=orthogonalEdgeStyle;rounded=0;html=1;jettySize=auto;orthogonalLoop=1;endArrow=block;endFill=0;endSize=8;strokeWidth=1;shadow=0;entryX=0.5;entryY=0;entryDx=0;entryDy=0;exitX=0.5;exitY=1;exitDx=0;exitDy=0;align=center;textOpacity=0;" edge="1" parent="WIyWlLk6GJQsqaUBKTNV-1" source="viviDab-kj7c0WBg1kO9-4" target="viviDab-kj7c0WBg1kO9-7">
          <mxGeometry x="0.0133" y="10" relative="1" as="geometry">
            <mxPoint as="offset" />
            <mxPoint x="170" y="400" as="sourcePoint" />
            <mxPoint x="250" y="400" as="targetPoint" />
          </mxGeometry>
        </mxCell>
        <mxCell id="viviDab-kj7c0WBg1kO9-10" value="No" style="rounded=0;html=1;jettySize=auto;orthogonalLoop=1;endArrow=block;endFill=0;endSize=8;strokeWidth=1;shadow=0;entryX=1;entryY=0;entryDx=0;entryDy=0;exitX=0.5;exitY=1;exitDx=0;exitDy=0;align=center;textOpacity=0;" edge="1" parent="WIyWlLk6GJQsqaUBKTNV-1" source="viviDab-kj7c0WBg1kO9-2" target="viviDab-kj7c0WBg1kO9-3">
          <mxGeometry x="0.0133" y="10" relative="1" as="geometry">
            <mxPoint as="offset" />
            <mxPoint x="300" y="430" as="sourcePoint" />
            <mxPoint x="300" y="505" as="targetPoint" />
            <Array as="points">
              <mxPoint x="440" y="165" />
            </Array>
          </mxGeometry>
        </mxCell>
        <mxCell id="viviDab-kj7c0WBg1kO9-11" value="Yes" style="rounded=0;html=1;jettySize=auto;orthogonalLoop=1;fontSize=11;endArrow=block;endFill=0;endSize=8;strokeWidth=1;shadow=0;labelBackgroundColor=none;edgeStyle=orthogonalEdgeStyle;exitX=0.5;exitY=1;exitDx=0;exitDy=0;" edge="1" parent="WIyWlLk6GJQsqaUBKTNV-1" source="viviDab-kj7c0WBg1kO9-3" target="viviDab-kj7c0WBg1kO9-12">
          <mxGeometry y="20" relative="1" as="geometry">
            <mxPoint as="offset" />
            <mxPoint x="90" y="275" as="sourcePoint" />
            <mxPoint x="80" y="555" as="targetPoint" />
          </mxGeometry>
        </mxCell>
        <mxCell id="viviDab-kj7c0WBg1kO9-12" value="Create menu list for all the users" style="rounded=0;whiteSpace=wrap;html=1;" vertex="1" parent="WIyWlLk6GJQsqaUBKTNV-1">
          <mxGeometry x="20" y="365" width="120" height="60" as="geometry" />
        </mxCell>
        <mxCell id="viviDab-kj7c0WBg1kO9-13" value="Output the&lt;div&gt;user list&lt;/div&gt;" style="shape=parallelogram;perimeter=parallelogramPerimeter;whiteSpace=wrap;html=1;fixedSize=1;shadow=0;strokeWidth=1;spacing=6;spacingTop=-4;" vertex="1" parent="WIyWlLk6GJQsqaUBKTNV-1">
          <mxGeometry x="20" y="465" width="120" height="60" as="geometry" />
        </mxCell>
        <mxCell id="viviDab-kj7c0WBg1kO9-14" value="No" style="edgeStyle=orthogonalEdgeStyle;rounded=0;html=1;jettySize=auto;orthogonalLoop=1;endArrow=block;endFill=0;endSize=8;strokeWidth=1;shadow=0;entryX=0.5;entryY=0;entryDx=0;entryDy=0;exitX=0.5;exitY=1;exitDx=0;exitDy=0;align=center;textOpacity=0;" edge="1" parent="WIyWlLk6GJQsqaUBKTNV-1" source="viviDab-kj7c0WBg1kO9-12" target="viviDab-kj7c0WBg1kO9-13">
          <mxGeometry x="0.0133" y="10" relative="1" as="geometry">
            <mxPoint as="offset" />
            <mxPoint x="300" y="430" as="sourcePoint" />
            <mxPoint x="300" y="505" as="targetPoint" />
          </mxGeometry>
        </mxCell>
        <mxCell id="viviDab-kj7c0WBg1kO9-15" value="No" style="edgeStyle=orthogonalEdgeStyle;rounded=0;html=1;jettySize=auto;orthogonalLoop=1;endArrow=block;endFill=0;endSize=8;strokeWidth=1;shadow=0;entryX=1;entryY=0.5;entryDx=0;entryDy=0;exitX=0;exitY=0.5;exitDx=0;exitDy=0;align=center;textOpacity=0;" edge="1" parent="WIyWlLk6GJQsqaUBKTNV-1" source="viviDab-kj7c0WBg1kO9-7" target="viviDab-kj7c0WBg1kO9-12">
          <mxGeometry x="0.0133" y="10" relative="1" as="geometry">
            <mxPoint as="offset" />
            <mxPoint x="300" y="430" as="sourcePoint" />
            <mxPoint x="300" y="505" as="targetPoint" />
          </mxGeometry>
        </mxCell>
        <mxCell id="viviDab-kj7c0WBg1kO9-16" value="Was the Add user&lt;div&gt;option selected&lt;/div&gt;" style="rhombus;whiteSpace=wrap;html=1;shadow=0;fontFamily=Helvetica;fontSize=12;align=center;strokeWidth=1;spacing=6;spacingTop=-4;" vertex="1" parent="WIyWlLk6GJQsqaUBKTNV-1">
          <mxGeometry x="210" y="630" width="160" height="110" as="geometry" />
        </mxCell>
        <mxCell id="viviDab-kj7c0WBg1kO9-17" value="Input option&lt;div&gt;from the list&lt;/div&gt;" style="shape=parallelogram;perimeter=parallelogramPerimeter;whiteSpace=wrap;html=1;fixedSize=1;shadow=0;strokeWidth=1;spacing=6;spacingTop=-4;" vertex="1" parent="WIyWlLk6GJQsqaUBKTNV-1">
          <mxGeometry x="20" y="785" width="120" height="60" as="geometry" />
        </mxCell>
        <mxCell id="viviDab-kj7c0WBg1kO9-18" value="No" style="edgeStyle=orthogonalEdgeStyle;rounded=0;html=1;jettySize=auto;orthogonalLoop=1;endArrow=block;endFill=0;endSize=8;strokeWidth=1;shadow=0;entryX=0.5;entryY=0;entryDx=0;entryDy=0;exitX=0.5;exitY=1;exitDx=0;exitDy=0;align=center;textOpacity=0;" edge="1" parent="WIyWlLk6GJQsqaUBKTNV-1" source="viviDab-kj7c0WBg1kO9-31" target="viviDab-kj7c0WBg1kO9-17">
          <mxGeometry x="0.0133" y="10" relative="1" as="geometry">
            <mxPoint as="offset" />
            <mxPoint x="90" y="575" as="sourcePoint" />
            <mxPoint x="90" y="625" as="targetPoint" />
          </mxGeometry>
        </mxCell>
        <mxCell id="viviDab-kj7c0WBg1kO9-19" value="No" style="edgeStyle=orthogonalEdgeStyle;rounded=0;html=1;jettySize=auto;orthogonalLoop=1;endArrow=block;endFill=0;endSize=8;strokeWidth=1;shadow=0;entryX=0;entryY=0.5;entryDx=0;entryDy=0;exitX=1;exitY=0.5;exitDx=0;exitDy=0;align=center;textOpacity=0;" edge="1" parent="WIyWlLk6GJQsqaUBKTNV-1" source="viviDab-kj7c0WBg1kO9-17" target="viviDab-kj7c0WBg1kO9-16">
          <mxGeometry x="0.0133" y="10" relative="1" as="geometry">
            <mxPoint as="offset" />
            <mxPoint x="90" y="685" as="sourcePoint" />
            <mxPoint x="90" y="745" as="targetPoint" />
          </mxGeometry>
        </mxCell>
        <mxCell id="viviDab-kj7c0WBg1kO9-20" value="Yes" style="rounded=0;html=1;jettySize=auto;orthogonalLoop=1;fontSize=11;endArrow=block;endFill=0;endSize=8;strokeWidth=1;shadow=0;labelBackgroundColor=none;edgeStyle=orthogonalEdgeStyle;exitX=1;exitY=0.5;exitDx=0;exitDy=0;entryX=1;entryY=0.5;entryDx=0;entryDy=0;" edge="1" parent="WIyWlLk6GJQsqaUBKTNV-1" source="viviDab-kj7c0WBg1kO9-16" target="viviDab-kj7c0WBg1kO9-7">
          <mxGeometry y="20" relative="1" as="geometry">
            <mxPoint as="offset" />
            <mxPoint x="90" y="455" as="sourcePoint" />
            <mxPoint x="90" y="515" as="targetPoint" />
          </mxGeometry>
        </mxCell>
        <mxCell id="viviDab-kj7c0WBg1kO9-68" value="" style="edgeStyle=orthogonalEdgeStyle;rounded=0;orthogonalLoop=1;jettySize=auto;html=1;" edge="1" parent="WIyWlLk6GJQsqaUBKTNV-1" source="viviDab-kj7c0WBg1kO9-21" target="viviDab-kj7c0WBg1kO9-16">
          <mxGeometry relative="1" as="geometry" />
        </mxCell>
        <mxCell id="viviDab-kj7c0WBg1kO9-21" value="Was a user seleced" style="rhombus;whiteSpace=wrap;html=1;shadow=0;fontFamily=Helvetica;fontSize=12;align=center;strokeWidth=1;spacing=6;spacingTop=-4;" vertex="1" parent="WIyWlLk6GJQsqaUBKTNV-1">
          <mxGeometry x="210" y="760" width="160" height="110" as="geometry" />
        </mxCell>
        <mxCell id="viviDab-kj7c0WBg1kO9-22" value="No" style="edgeStyle=orthogonalEdgeStyle;rounded=0;html=1;jettySize=auto;orthogonalLoop=1;fontSize=11;endArrow=block;endFill=0;endSize=8;strokeWidth=1;shadow=0;labelBackgroundColor=none;entryX=0;entryY=0.5;entryDx=0;entryDy=0;textOpacity=0;exitX=1;exitY=0.5;exitDx=0;exitDy=0;" edge="1" parent="WIyWlLk6GJQsqaUBKTNV-1" source="viviDab-kj7c0WBg1kO9-17" target="viviDab-kj7c0WBg1kO9-21">
          <mxGeometry y="10" relative="1" as="geometry">
            <mxPoint as="offset" />
            <mxPoint x="110" y="875" as="sourcePoint" />
            <mxPoint x="250" y="400" as="targetPoint" />
          </mxGeometry>
        </mxCell>
        <mxCell id="viviDab-kj7c0WBg1kO9-23" value="Yes" style="edgeStyle=orthogonalEdgeStyle;rounded=0;html=1;jettySize=auto;orthogonalLoop=1;fontSize=11;endArrow=block;endFill=0;endSize=8;strokeWidth=1;shadow=0;labelBackgroundColor=none;exitX=1;exitY=0.5;exitDx=0;exitDy=0;entryX=0;entryY=0.5;entryDx=0;entryDy=0;" edge="1" parent="WIyWlLk6GJQsqaUBKTNV-1" source="viviDab-kj7c0WBg1kO9-21" target="viviDab-kj7c0WBg1kO9-37">
          <mxGeometry y="10" relative="1" as="geometry">
            <mxPoint as="offset" />
            <mxPoint x="380" y="775" as="sourcePoint" />
            <mxPoint x="530" y="815" as="targetPoint" />
          </mxGeometry>
        </mxCell>
        <mxCell id="viviDab-kj7c0WBg1kO9-24" value="Close the Console" style="rounded=0;whiteSpace=wrap;html=1;" vertex="1" parent="WIyWlLk6GJQsqaUBKTNV-1">
          <mxGeometry x="380" y="995" width="120" height="60" as="geometry" />
        </mxCell>
        <mxCell id="viviDab-kj7c0WBg1kO9-25" value="END" style="ellipse;whiteSpace=wrap;html=1;fillColor=#d5e8d4;strokeColor=#82b366;" vertex="1" parent="WIyWlLk6GJQsqaUBKTNV-1">
          <mxGeometry x="230" y="1184" width="120" height="80" as="geometry" />
        </mxCell>
        <mxCell id="viviDab-kj7c0WBg1kO9-26" value="" style="rounded=0;html=1;jettySize=auto;orthogonalLoop=1;fontSize=11;endArrow=block;endFill=0;endSize=8;strokeWidth=1;shadow=0;labelBackgroundColor=none;edgeStyle=orthogonalEdgeStyle;exitX=0.5;exitY=1;exitDx=0;exitDy=0;entryX=1;entryY=0.5;entryDx=0;entryDy=0;" edge="1" parent="WIyWlLk6GJQsqaUBKTNV-1" source="viviDab-kj7c0WBg1kO9-24" target="viviDab-kj7c0WBg1kO9-25">
          <mxGeometry relative="1" as="geometry">
            <mxPoint x="90" y="85" as="sourcePoint" />
            <mxPoint x="90" y="165" as="targetPoint" />
          </mxGeometry>
        </mxCell>
        <mxCell id="viviDab-kj7c0WBg1kO9-28" value="Was the Exit&lt;div&gt;option seleced&lt;/div&gt;" style="rhombus;whiteSpace=wrap;html=1;shadow=0;fontFamily=Helvetica;fontSize=12;align=center;strokeWidth=1;spacing=6;spacingTop=-4;" vertex="1" parent="WIyWlLk6GJQsqaUBKTNV-1">
          <mxGeometry x="210" y="890" width="160" height="110" as="geometry" />
        </mxCell>
        <mxCell id="viviDab-kj7c0WBg1kO9-29" value="No" style="edgeStyle=orthogonalEdgeStyle;rounded=0;html=1;jettySize=auto;orthogonalLoop=1;fontSize=11;endArrow=block;endFill=0;endSize=8;strokeWidth=1;shadow=0;labelBackgroundColor=none;entryX=0;entryY=0.5;entryDx=0;entryDy=0;textOpacity=0;exitX=1;exitY=0.5;exitDx=0;exitDy=0;" edge="1" parent="WIyWlLk6GJQsqaUBKTNV-1" source="viviDab-kj7c0WBg1kO9-17" target="viviDab-kj7c0WBg1kO9-28">
          <mxGeometry y="10" relative="1" as="geometry">
            <mxPoint as="offset" />
            <mxPoint x="140" y="775" as="sourcePoint" />
            <mxPoint x="220" y="840" as="targetPoint" />
          </mxGeometry>
        </mxCell>
        <mxCell id="viviDab-kj7c0WBg1kO9-30" value="Yes" style="edgeStyle=orthogonalEdgeStyle;rounded=0;html=1;jettySize=auto;orthogonalLoop=1;fontSize=11;endArrow=block;endFill=0;endSize=8;strokeWidth=1;shadow=0;labelBackgroundColor=none;exitX=1;exitY=0.5;exitDx=0;exitDy=0;entryX=0.5;entryY=0;entryDx=0;entryDy=0;" edge="1" parent="WIyWlLk6GJQsqaUBKTNV-1" source="viviDab-kj7c0WBg1kO9-28" target="viviDab-kj7c0WBg1kO9-24">
          <mxGeometry y="10" relative="1" as="geometry">
            <mxPoint as="offset" />
            <mxPoint x="380" y="820" as="sourcePoint" />
            <mxPoint x="520" y="820" as="targetPoint" />
          </mxGeometry>
        </mxCell>
        <mxCell id="viviDab-kj7c0WBg1kO9-36" value="" style="edgeStyle=orthogonalEdgeStyle;rounded=0;html=1;jettySize=auto;orthogonalLoop=1;endArrow=block;endFill=0;endSize=8;strokeWidth=1;shadow=0;entryX=0.5;entryY=0;entryDx=0;entryDy=0;exitX=0.5;exitY=1;exitDx=0;exitDy=0;align=center;textOpacity=0;" edge="1" parent="WIyWlLk6GJQsqaUBKTNV-1" source="viviDab-kj7c0WBg1kO9-13" target="viviDab-kj7c0WBg1kO9-31">
          <mxGeometry x="0.0133" y="10" relative="1" as="geometry">
            <mxPoint as="offset" />
            <mxPoint x="80" y="525" as="sourcePoint" />
            <mxPoint x="80" y="705" as="targetPoint" />
          </mxGeometry>
        </mxCell>
        <mxCell id="viviDab-kj7c0WBg1kO9-31" value="UserSelection" style="swimlane;fontStyle=0;childLayout=stackLayout;horizontal=1;startSize=30;horizontalStack=0;resizeParent=1;resizeParentMax=0;resizeLast=0;collapsible=1;marginBottom=0;whiteSpace=wrap;html=1;" vertex="1" parent="WIyWlLk6GJQsqaUBKTNV-1">
          <mxGeometry x="10" y="575" width="140" height="150" as="geometry" />
        </mxCell>
        <mxCell id="viviDab-kj7c0WBg1kO9-32" value="Add User" style="text;strokeColor=none;fillColor=none;align=left;verticalAlign=middle;spacingLeft=4;spacingRight=4;overflow=hidden;points=[[0,0.5],[1,0.5]];portConstraint=eastwest;rotatable=0;whiteSpace=wrap;html=1;" vertex="1" parent="viviDab-kj7c0WBg1kO9-31">
          <mxGeometry y="30" width="140" height="30" as="geometry" />
        </mxCell>
        <mxCell id="viviDab-kj7c0WBg1kO9-33" value="User 1" style="text;strokeColor=none;fillColor=none;align=left;verticalAlign=middle;spacingLeft=4;spacingRight=4;overflow=hidden;points=[[0,0.5],[1,0.5]];portConstraint=eastwest;rotatable=0;whiteSpace=wrap;html=1;" vertex="1" parent="viviDab-kj7c0WBg1kO9-31">
          <mxGeometry y="60" width="140" height="30" as="geometry" />
        </mxCell>
        <mxCell id="viviDab-kj7c0WBg1kO9-34" value="User 2" style="text;strokeColor=none;fillColor=none;align=left;verticalAlign=middle;spacingLeft=4;spacingRight=4;overflow=hidden;points=[[0,0.5],[1,0.5]];portConstraint=eastwest;rotatable=0;whiteSpace=wrap;html=1;" vertex="1" parent="viviDab-kj7c0WBg1kO9-31">
          <mxGeometry y="90" width="140" height="30" as="geometry" />
        </mxCell>
        <mxCell id="viviDab-kj7c0WBg1kO9-35" value="Exit" style="text;strokeColor=none;fillColor=none;align=left;verticalAlign=middle;spacingLeft=4;spacingRight=4;overflow=hidden;points=[[0,0.5],[1,0.5]];portConstraint=eastwest;rotatable=0;whiteSpace=wrap;html=1;" vertex="1" parent="viviDab-kj7c0WBg1kO9-31">
          <mxGeometry y="120" width="140" height="30" as="geometry" />
        </mxCell>
        <mxCell id="viviDab-kj7c0WBg1kO9-37" value="Retreve user info" style="rounded=0;whiteSpace=wrap;html=1;" vertex="1" parent="WIyWlLk6GJQsqaUBKTNV-1">
          <mxGeometry x="440" y="785" width="120" height="60" as="geometry" />
        </mxCell>
        <mxCell id="viviDab-kj7c0WBg1kO9-38" value="Create Main menu" style="rounded=0;whiteSpace=wrap;html=1;" vertex="1" parent="WIyWlLk6GJQsqaUBKTNV-1">
          <mxGeometry x="440" y="515" width="120" height="60" as="geometry" />
        </mxCell>
        <mxCell id="viviDab-kj7c0WBg1kO9-39" value="No" style="edgeStyle=orthogonalEdgeStyle;rounded=0;html=1;jettySize=auto;orthogonalLoop=1;fontSize=11;endArrow=block;endFill=0;endSize=8;strokeWidth=1;shadow=0;labelBackgroundColor=none;entryX=0.5;entryY=1;entryDx=0;entryDy=0;textOpacity=0;exitX=0.5;exitY=0;exitDx=0;exitDy=0;" edge="1" parent="WIyWlLk6GJQsqaUBKTNV-1" source="viviDab-kj7c0WBg1kO9-37" target="viviDab-kj7c0WBg1kO9-38">
          <mxGeometry y="10" relative="1" as="geometry">
            <mxPoint as="offset" />
            <mxPoint x="140" y="825" as="sourcePoint" />
            <mxPoint x="220" y="955" as="targetPoint" />
          </mxGeometry>
        </mxCell>
        <mxCell id="viviDab-kj7c0WBg1kO9-45" value="No" style="edgeStyle=orthogonalEdgeStyle;rounded=0;html=1;jettySize=auto;orthogonalLoop=1;endArrow=block;endFill=0;endSize=8;strokeWidth=1;shadow=0;entryX=0;entryY=0.5;entryDx=0;entryDy=0;exitX=1;exitY=0.5;exitDx=0;exitDy=0;align=center;textOpacity=0;" edge="1" parent="WIyWlLk6GJQsqaUBKTNV-1" source="viviDab-kj7c0WBg1kO9-38" target="viviDab-kj7c0WBg1kO9-46">
          <mxGeometry x="0.0133" y="10" relative="1" as="geometry">
            <mxPoint as="offset" />
            <mxPoint x="90" y="735" as="sourcePoint" />
            <mxPoint x="90" y="795" as="targetPoint" />
          </mxGeometry>
        </mxCell>
        <mxCell id="viviDab-kj7c0WBg1kO9-46" value="Output the&lt;div&gt;main menu&lt;/div&gt;" style="shape=parallelogram;perimeter=parallelogramPerimeter;whiteSpace=wrap;html=1;fixedSize=1;shadow=0;strokeWidth=1;spacing=6;spacingTop=-4;" vertex="1" parent="WIyWlLk6GJQsqaUBKTNV-1">
          <mxGeometry x="610" y="515" width="120" height="60" as="geometry" />
        </mxCell>
        <mxCell id="viviDab-kj7c0WBg1kO9-48" value="No" style="edgeStyle=orthogonalEdgeStyle;rounded=0;html=1;jettySize=auto;orthogonalLoop=1;endArrow=block;endFill=0;endSize=8;strokeWidth=1;shadow=0;entryX=0.5;entryY=0;entryDx=0;entryDy=0;exitX=0.5;exitY=1;exitDx=0;exitDy=0;align=center;textOpacity=0;" edge="1" parent="WIyWlLk6GJQsqaUBKTNV-1" source="viviDab-kj7c0WBg1kO9-40" target="viviDab-kj7c0WBg1kO9-52">
          <mxGeometry x="0.0133" y="10" relative="1" as="geometry">
            <mxPoint as="offset" />
            <mxPoint x="570" y="555" as="sourcePoint" />
            <mxPoint x="610" y="600" as="targetPoint" />
          </mxGeometry>
        </mxCell>
        <mxCell id="viviDab-kj7c0WBg1kO9-51" value="Was the New Entry&lt;div&gt;option selected&lt;/div&gt;" style="rhombus;whiteSpace=wrap;html=1;shadow=0;fontFamily=Helvetica;fontSize=12;align=center;strokeWidth=1;spacing=6;spacingTop=-4;" vertex="1" parent="WIyWlLk6GJQsqaUBKTNV-1">
          <mxGeometry x="850" y="735" width="160" height="110" as="geometry" />
        </mxCell>
        <mxCell id="viviDab-kj7c0WBg1kO9-52" value="Input option&lt;div&gt;from the list&lt;/div&gt;" style="shape=parallelogram;perimeter=parallelogramPerimeter;whiteSpace=wrap;html=1;fixedSize=1;shadow=0;strokeWidth=1;spacing=6;spacingTop=-4;" vertex="1" parent="WIyWlLk6GJQsqaUBKTNV-1">
          <mxGeometry x="610" y="955" width="120" height="60" as="geometry" />
        </mxCell>
        <mxCell id="viviDab-kj7c0WBg1kO9-53" value="No" style="edgeStyle=orthogonalEdgeStyle;rounded=0;html=1;jettySize=auto;orthogonalLoop=1;endArrow=block;endFill=0;endSize=8;strokeWidth=1;shadow=0;entryX=0;entryY=0.5;entryDx=0;entryDy=0;exitX=1;exitY=0.5;exitDx=0;exitDy=0;align=center;textOpacity=0;" edge="1" parent="WIyWlLk6GJQsqaUBKTNV-1" source="viviDab-kj7c0WBg1kO9-52" target="viviDab-kj7c0WBg1kO9-51">
          <mxGeometry x="0.0133" y="10" relative="1" as="geometry">
            <mxPoint as="offset" />
            <mxPoint x="730" y="780" as="sourcePoint" />
            <mxPoint x="730" y="840" as="targetPoint" />
          </mxGeometry>
        </mxCell>
        <mxCell id="viviDab-kj7c0WBg1kO9-54" value="Was the View&lt;div&gt;History&amp;nbsp;&lt;span style=&quot;background-color: initial;&quot;&gt;option&lt;/span&gt;&lt;/div&gt;&lt;div&gt;&lt;span style=&quot;background-color: initial;&quot;&gt;selected&lt;/span&gt;&lt;/div&gt;" style="rhombus;whiteSpace=wrap;html=1;shadow=0;fontFamily=Helvetica;fontSize=12;align=center;strokeWidth=1;spacing=6;spacingTop=-4;" vertex="1" parent="WIyWlLk6GJQsqaUBKTNV-1">
          <mxGeometry x="850" y="865" width="160" height="110" as="geometry" />
        </mxCell>
        <mxCell id="viviDab-kj7c0WBg1kO9-55" value="No" style="edgeStyle=orthogonalEdgeStyle;rounded=0;html=1;jettySize=auto;orthogonalLoop=1;fontSize=11;endArrow=block;endFill=0;endSize=8;strokeWidth=1;shadow=0;labelBackgroundColor=none;entryX=0;entryY=0.5;entryDx=0;entryDy=0;textOpacity=0;exitX=1;exitY=0.5;exitDx=0;exitDy=0;" edge="1" parent="WIyWlLk6GJQsqaUBKTNV-1" source="viviDab-kj7c0WBg1kO9-52" target="viviDab-kj7c0WBg1kO9-54">
          <mxGeometry y="10" relative="1" as="geometry">
            <mxPoint as="offset" />
            <mxPoint x="750" y="970" as="sourcePoint" />
            <mxPoint x="890" y="495" as="targetPoint" />
          </mxGeometry>
        </mxCell>
        <mxCell id="viviDab-kj7c0WBg1kO9-56" value="Was the Settings&lt;div&gt;option seleced&lt;/div&gt;" style="rhombus;whiteSpace=wrap;html=1;shadow=0;fontFamily=Helvetica;fontSize=12;align=center;strokeWidth=1;spacing=6;spacingTop=-4;" vertex="1" parent="WIyWlLk6GJQsqaUBKTNV-1">
          <mxGeometry x="850" y="995" width="160" height="110" as="geometry" />
        </mxCell>
        <mxCell id="viviDab-kj7c0WBg1kO9-57" value="No" style="edgeStyle=orthogonalEdgeStyle;rounded=0;html=1;jettySize=auto;orthogonalLoop=1;fontSize=11;endArrow=block;endFill=0;endSize=8;strokeWidth=1;shadow=0;labelBackgroundColor=none;entryX=0;entryY=0.5;entryDx=0;entryDy=0;textOpacity=0;exitX=1;exitY=0.5;exitDx=0;exitDy=0;" edge="1" parent="WIyWlLk6GJQsqaUBKTNV-1" source="viviDab-kj7c0WBg1kO9-52" target="viviDab-kj7c0WBg1kO9-56">
          <mxGeometry y="10" relative="1" as="geometry">
            <mxPoint as="offset" />
            <mxPoint x="780" y="870" as="sourcePoint" />
            <mxPoint x="860" y="935" as="targetPoint" />
          </mxGeometry>
        </mxCell>
        <mxCell id="viviDab-kj7c0WBg1kO9-59" value="" style="edgeStyle=orthogonalEdgeStyle;rounded=0;html=1;jettySize=auto;orthogonalLoop=1;endArrow=block;endFill=0;endSize=8;strokeWidth=1;shadow=0;entryX=0.5;entryY=0;entryDx=0;entryDy=0;exitX=0.5;exitY=1;exitDx=0;exitDy=0;align=center;textOpacity=0;" edge="1" parent="WIyWlLk6GJQsqaUBKTNV-1" source="viviDab-kj7c0WBg1kO9-46" target="viviDab-kj7c0WBg1kO9-40">
          <mxGeometry x="0.0133" y="10" relative="1" as="geometry">
            <mxPoint as="offset" />
            <mxPoint x="670" y="575" as="sourcePoint" />
            <mxPoint x="670" y="870" as="targetPoint" />
          </mxGeometry>
        </mxCell>
        <mxCell id="viviDab-kj7c0WBg1kO9-40" value="UserSelection" style="swimlane;fontStyle=0;childLayout=stackLayout;horizontal=1;startSize=30;horizontalStack=0;resizeParent=1;resizeParentMax=0;resizeLast=0;collapsible=1;marginBottom=0;whiteSpace=wrap;html=1;" vertex="1" parent="WIyWlLk6GJQsqaUBKTNV-1">
          <mxGeometry x="600" y="625" width="140" height="210" as="geometry" />
        </mxCell>
        <mxCell id="viviDab-kj7c0WBg1kO9-41" value="New Entry" style="text;strokeColor=none;fillColor=none;align=left;verticalAlign=middle;spacingLeft=4;spacingRight=4;overflow=hidden;points=[[0,0.5],[1,0.5]];portConstraint=eastwest;rotatable=0;whiteSpace=wrap;html=1;" vertex="1" parent="viviDab-kj7c0WBg1kO9-40">
          <mxGeometry y="30" width="140" height="30" as="geometry" />
        </mxCell>
        <mxCell id="viviDab-kj7c0WBg1kO9-42" value="View History" style="text;strokeColor=none;fillColor=none;align=left;verticalAlign=middle;spacingLeft=4;spacingRight=4;overflow=hidden;points=[[0,0.5],[1,0.5]];portConstraint=eastwest;rotatable=0;whiteSpace=wrap;html=1;" vertex="1" parent="viviDab-kj7c0WBg1kO9-40">
          <mxGeometry y="60" width="140" height="30" as="geometry" />
        </mxCell>
        <mxCell id="viviDab-kj7c0WBg1kO9-43" value="Genarate Reports" style="text;strokeColor=none;fillColor=none;align=left;verticalAlign=middle;spacingLeft=4;spacingRight=4;overflow=hidden;points=[[0,0.5],[1,0.5]];portConstraint=eastwest;rotatable=0;whiteSpace=wrap;html=1;" vertex="1" parent="viviDab-kj7c0WBg1kO9-40">
          <mxGeometry y="90" width="140" height="30" as="geometry" />
        </mxCell>
        <mxCell id="viviDab-kj7c0WBg1kO9-44" value="Settings" style="text;strokeColor=none;fillColor=none;align=left;verticalAlign=middle;spacingLeft=4;spacingRight=4;overflow=hidden;points=[[0,0.5],[1,0.5]];portConstraint=eastwest;rotatable=0;whiteSpace=wrap;html=1;" vertex="1" parent="viviDab-kj7c0WBg1kO9-40">
          <mxGeometry y="120" width="140" height="30" as="geometry" />
        </mxCell>
        <mxCell id="viviDab-kj7c0WBg1kO9-49" value="Back" style="text;strokeColor=none;fillColor=none;align=left;verticalAlign=middle;spacingLeft=4;spacingRight=4;overflow=hidden;points=[[0,0.5],[1,0.5]];portConstraint=eastwest;rotatable=0;whiteSpace=wrap;html=1;" vertex="1" parent="viviDab-kj7c0WBg1kO9-40">
          <mxGeometry y="150" width="140" height="30" as="geometry" />
        </mxCell>
        <mxCell id="viviDab-kj7c0WBg1kO9-66" value="Exit" style="text;strokeColor=none;fillColor=none;align=left;verticalAlign=middle;spacingLeft=4;spacingRight=4;overflow=hidden;points=[[0,0.5],[1,0.5]];portConstraint=eastwest;rotatable=0;whiteSpace=wrap;html=1;" vertex="1" parent="viviDab-kj7c0WBg1kO9-40">
          <mxGeometry y="180" width="140" height="30" as="geometry" />
        </mxCell>
        <mxCell id="viviDab-kj7c0WBg1kO9-60" value="" style="endArrow=none;html=1;rounded=0;entryX=0.5;entryY=1;entryDx=0;entryDy=0;exitX=0.5;exitY=0;exitDx=0;exitDy=0;" edge="1" parent="WIyWlLk6GJQsqaUBKTNV-1" source="viviDab-kj7c0WBg1kO9-21" target="viviDab-kj7c0WBg1kO9-16">
          <mxGeometry width="50" height="50" relative="1" as="geometry">
            <mxPoint x="380" y="895" as="sourcePoint" />
            <mxPoint x="430" y="845" as="targetPoint" />
          </mxGeometry>
        </mxCell>
        <mxCell id="viviDab-kj7c0WBg1kO9-61" value="" style="endArrow=none;html=1;rounded=0;entryX=0.5;entryY=1;entryDx=0;entryDy=0;exitX=0.5;exitY=0;exitDx=0;exitDy=0;" edge="1" parent="WIyWlLk6GJQsqaUBKTNV-1" source="viviDab-kj7c0WBg1kO9-28" target="viviDab-kj7c0WBg1kO9-21">
          <mxGeometry width="50" height="50" relative="1" as="geometry">
            <mxPoint x="300" y="770" as="sourcePoint" />
            <mxPoint x="300" y="750" as="targetPoint" />
          </mxGeometry>
        </mxCell>
        <mxCell id="viviDab-kj7c0WBg1kO9-62" value="No" style="edgeStyle=orthogonalEdgeStyle;rounded=0;html=1;jettySize=auto;orthogonalLoop=1;fontSize=11;endArrow=block;endFill=0;endSize=8;strokeWidth=1;shadow=0;labelBackgroundColor=none;exitX=0.5;exitY=1;exitDx=0;exitDy=0;entryX=0.5;entryY=0;entryDx=0;entryDy=0;" edge="1" parent="WIyWlLk6GJQsqaUBKTNV-1" source="viviDab-kj7c0WBg1kO9-28" target="viviDab-kj7c0WBg1kO9-63">
          <mxGeometry y="10" relative="1" as="geometry">
            <mxPoint as="offset" />
            <mxPoint x="350" y="260" as="sourcePoint" />
            <mxPoint x="290" y="1055" as="targetPoint" />
          </mxGeometry>
        </mxCell>
        <mxCell id="viviDab-kj7c0WBg1kO9-63" value="Output error&lt;div&gt;message&lt;/div&gt;" style="shape=parallelogram;perimeter=parallelogramPerimeter;whiteSpace=wrap;html=1;fixedSize=1;shadow=0;strokeWidth=1;spacing=6;spacingTop=-4;fillColor=#ffe6cc;strokeColor=#d79b00;" vertex="1" parent="WIyWlLk6GJQsqaUBKTNV-1">
          <mxGeometry x="230" y="1055" width="120" height="60" as="geometry" />
        </mxCell>
        <mxCell id="viviDab-kj7c0WBg1kO9-64" value="No" style="edgeStyle=orthogonalEdgeStyle;rounded=0;html=1;jettySize=auto;orthogonalLoop=1;endArrow=block;endFill=0;endSize=8;strokeWidth=1;shadow=0;exitX=0;exitY=0.5;exitDx=0;exitDy=0;align=center;textOpacity=0;entryX=0.5;entryY=1;entryDx=0;entryDy=0;" edge="1" parent="WIyWlLk6GJQsqaUBKTNV-1" source="viviDab-kj7c0WBg1kO9-63" target="viviDab-kj7c0WBg1kO9-17">
          <mxGeometry x="0.0133" y="10" relative="1" as="geometry">
            <mxPoint as="offset" />
            <mxPoint x="90" y="735" as="sourcePoint" />
            <mxPoint x="90" y="895" as="targetPoint" />
          </mxGeometry>
        </mxCell>
        <mxCell id="viviDab-kj7c0WBg1kO9-65" value="No" style="edgeStyle=orthogonalEdgeStyle;rounded=0;html=1;jettySize=auto;orthogonalLoop=1;fontSize=11;endArrow=block;endFill=0;endSize=8;strokeWidth=1;shadow=0;labelBackgroundColor=none;entryX=1;entryY=0.5;entryDx=0;entryDy=0;textOpacity=0;" edge="1" parent="WIyWlLk6GJQsqaUBKTNV-1" source="viviDab-kj7c0WBg1kO9-118" target="viviDab-kj7c0WBg1kO9-13">
          <mxGeometry y="10" relative="1" as="geometry">
            <mxPoint as="offset" />
            <mxPoint x="270" y="545" as="sourcePoint" />
            <mxPoint x="510" y="585" as="targetPoint" />
          </mxGeometry>
        </mxCell>
        <mxCell id="viviDab-kj7c0WBg1kO9-67" value="Was the Exit&lt;div&gt;option seleced&lt;/div&gt;" style="rhombus;whiteSpace=wrap;html=1;shadow=0;fontFamily=Helvetica;fontSize=12;align=center;strokeWidth=1;spacing=6;spacingTop=-4;" vertex="1" parent="WIyWlLk6GJQsqaUBKTNV-1">
          <mxGeometry x="850" y="1125" width="160" height="110" as="geometry" />
        </mxCell>
        <mxCell id="viviDab-kj7c0WBg1kO9-69" value="" style="endArrow=none;html=1;rounded=0;entryX=0.5;entryY=1;entryDx=0;entryDy=0;exitX=0.5;exitY=0;exitDx=0;exitDy=0;" edge="1" parent="WIyWlLk6GJQsqaUBKTNV-1" source="viviDab-kj7c0WBg1kO9-67" target="viviDab-kj7c0WBg1kO9-56">
          <mxGeometry width="50" height="50" relative="1" as="geometry">
            <mxPoint x="300" y="770" as="sourcePoint" />
            <mxPoint x="300" y="750" as="targetPoint" />
          </mxGeometry>
        </mxCell>
        <mxCell id="viviDab-kj7c0WBg1kO9-70" value="" style="endArrow=none;html=1;rounded=0;entryX=0.5;entryY=1;entryDx=0;entryDy=0;exitX=0.5;exitY=0;exitDx=0;exitDy=0;" edge="1" parent="WIyWlLk6GJQsqaUBKTNV-1" source="viviDab-kj7c0WBg1kO9-56" target="viviDab-kj7c0WBg1kO9-54">
          <mxGeometry width="50" height="50" relative="1" as="geometry">
            <mxPoint x="310" y="780" as="sourcePoint" />
            <mxPoint x="310" y="760" as="targetPoint" />
          </mxGeometry>
        </mxCell>
        <mxCell id="viviDab-kj7c0WBg1kO9-71" value="" style="endArrow=none;html=1;rounded=0;entryX=0.5;entryY=1;entryDx=0;entryDy=0;exitX=0.5;exitY=0;exitDx=0;exitDy=0;" edge="1" parent="WIyWlLk6GJQsqaUBKTNV-1" source="viviDab-kj7c0WBg1kO9-54" target="viviDab-kj7c0WBg1kO9-51">
          <mxGeometry width="50" height="50" relative="1" as="geometry">
            <mxPoint x="320" y="790" as="sourcePoint" />
            <mxPoint x="320" y="770" as="targetPoint" />
          </mxGeometry>
        </mxCell>
        <mxCell id="viviDab-kj7c0WBg1kO9-72" value="No" style="edgeStyle=orthogonalEdgeStyle;rounded=0;html=1;jettySize=auto;orthogonalLoop=1;fontSize=11;endArrow=block;endFill=0;endSize=8;strokeWidth=1;shadow=0;labelBackgroundColor=none;entryX=0.5;entryY=0;entryDx=0;entryDy=0;exitX=0.5;exitY=1;exitDx=0;exitDy=0;" edge="1" parent="WIyWlLk6GJQsqaUBKTNV-1" target="viviDab-kj7c0WBg1kO9-73" source="viviDab-kj7c0WBg1kO9-67">
          <mxGeometry y="10" relative="1" as="geometry">
            <mxPoint as="offset" />
            <mxPoint x="930" y="1265" as="sourcePoint" />
            <mxPoint x="930" y="1320" as="targetPoint" />
          </mxGeometry>
        </mxCell>
        <mxCell id="viviDab-kj7c0WBg1kO9-73" value="Output error&lt;div&gt;message&lt;/div&gt;" style="shape=parallelogram;perimeter=parallelogramPerimeter;whiteSpace=wrap;html=1;fixedSize=1;shadow=0;strokeWidth=1;spacing=6;spacingTop=-4;fillColor=#ffe6cc;strokeColor=#d79b00;" vertex="1" parent="WIyWlLk6GJQsqaUBKTNV-1">
          <mxGeometry x="870" y="1295" width="120" height="60" as="geometry" />
        </mxCell>
        <mxCell id="viviDab-kj7c0WBg1kO9-74" value="No" style="edgeStyle=orthogonalEdgeStyle;rounded=0;html=1;jettySize=auto;orthogonalLoop=1;endArrow=block;endFill=0;endSize=8;strokeWidth=1;shadow=0;exitX=0;exitY=0.5;exitDx=0;exitDy=0;align=center;textOpacity=0;entryX=0.5;entryY=1;entryDx=0;entryDy=0;" edge="1" parent="WIyWlLk6GJQsqaUBKTNV-1" source="viviDab-kj7c0WBg1kO9-73" target="viviDab-kj7c0WBg1kO9-52">
          <mxGeometry x="0.0133" y="10" relative="1" as="geometry">
            <mxPoint as="offset" />
            <mxPoint x="840" y="1285" as="sourcePoint" />
            <mxPoint x="680" y="1045" as="targetPoint" />
          </mxGeometry>
        </mxCell>
        <mxCell id="viviDab-kj7c0WBg1kO9-75" value="No" style="edgeStyle=orthogonalEdgeStyle;rounded=0;html=1;jettySize=auto;orthogonalLoop=1;fontSize=11;endArrow=block;endFill=0;endSize=8;strokeWidth=1;shadow=0;labelBackgroundColor=none;entryX=0;entryY=0.5;entryDx=0;entryDy=0;textOpacity=0;exitX=1;exitY=0.5;exitDx=0;exitDy=0;" edge="1" parent="WIyWlLk6GJQsqaUBKTNV-1" source="viviDab-kj7c0WBg1kO9-52" target="viviDab-kj7c0WBg1kO9-67">
          <mxGeometry y="10" relative="1" as="geometry">
            <mxPoint as="offset" />
            <mxPoint x="730" y="930" as="sourcePoint" />
            <mxPoint x="860" y="1060" as="targetPoint" />
          </mxGeometry>
        </mxCell>
        <mxCell id="viviDab-kj7c0WBg1kO9-76" value="Create Main menu" style="rounded=0;whiteSpace=wrap;html=1;" vertex="1" parent="WIyWlLk6GJQsqaUBKTNV-1">
          <mxGeometry x="990" y="505" width="120" height="60" as="geometry" />
        </mxCell>
        <mxCell id="viviDab-kj7c0WBg1kO9-77" value="Yes" style="edgeStyle=orthogonalEdgeStyle;rounded=0;html=1;jettySize=auto;orthogonalLoop=1;fontSize=11;endArrow=block;endFill=0;endSize=8;strokeWidth=1;shadow=0;labelBackgroundColor=none;entryX=0.5;entryY=1;entryDx=0;entryDy=0;exitX=1;exitY=0.5;exitDx=0;exitDy=0;" edge="1" parent="WIyWlLk6GJQsqaUBKTNV-1" target="viviDab-kj7c0WBg1kO9-76" source="viviDab-kj7c0WBg1kO9-51">
          <mxGeometry x="0.2258" y="20" relative="1" as="geometry">
            <mxPoint as="offset" />
            <mxPoint x="1160" y="795" as="sourcePoint" />
            <mxPoint x="880" y="965" as="targetPoint" />
          </mxGeometry>
        </mxCell>
        <mxCell id="viviDab-kj7c0WBg1kO9-78" value="No" style="edgeStyle=orthogonalEdgeStyle;rounded=0;html=1;jettySize=auto;orthogonalLoop=1;endArrow=block;endFill=0;endSize=8;strokeWidth=1;shadow=0;exitX=1;exitY=0.5;exitDx=0;exitDy=0;align=center;textOpacity=0;entryX=0;entryY=0.5;entryDx=0;entryDy=0;" edge="1" parent="WIyWlLk6GJQsqaUBKTNV-1" source="viviDab-kj7c0WBg1kO9-76" target="viviDab-kj7c0WBg1kO9-79">
          <mxGeometry x="0.0133" y="10" relative="1" as="geometry">
            <mxPoint as="offset" />
            <mxPoint x="750" y="745" as="sourcePoint" />
            <mxPoint x="1060" y="515" as="targetPoint" />
          </mxGeometry>
        </mxCell>
        <mxCell id="viviDab-kj7c0WBg1kO9-79" value="Output the&lt;div&gt;main menu&lt;/div&gt;" style="shape=parallelogram;perimeter=parallelogramPerimeter;whiteSpace=wrap;html=1;fixedSize=1;shadow=0;strokeWidth=1;spacing=6;spacingTop=-4;" vertex="1" parent="WIyWlLk6GJQsqaUBKTNV-1">
          <mxGeometry x="1161" y="505" width="120" height="60" as="geometry" />
        </mxCell>
        <mxCell id="viviDab-kj7c0WBg1kO9-80" value="" style="edgeStyle=orthogonalEdgeStyle;rounded=0;html=1;jettySize=auto;orthogonalLoop=1;endArrow=block;endFill=0;endSize=8;strokeWidth=1;shadow=0;entryX=0.5;entryY=0;entryDx=0;entryDy=0;exitX=0.5;exitY=1;exitDx=0;exitDy=0;align=center;textOpacity=0;" edge="1" parent="WIyWlLk6GJQsqaUBKTNV-1" source="viviDab-kj7c0WBg1kO9-79" target="viviDab-kj7c0WBg1kO9-81">
          <mxGeometry x="0.0133" y="10" relative="1" as="geometry">
            <mxPoint as="offset" />
            <mxPoint x="1330" y="585" as="sourcePoint" />
            <mxPoint x="1330" y="880" as="targetPoint" />
          </mxGeometry>
        </mxCell>
        <mxCell id="viviDab-kj7c0WBg1kO9-81" value="User Selection" style="swimlane;fontStyle=0;childLayout=stackLayout;horizontal=1;startSize=30;horizontalStack=0;resizeParent=1;resizeParentMax=0;resizeLast=0;collapsible=1;marginBottom=0;whiteSpace=wrap;html=1;" vertex="1" parent="WIyWlLk6GJQsqaUBKTNV-1">
          <mxGeometry x="1151" y="615" width="140" height="120" as="geometry" />
        </mxCell>
        <mxCell id="viviDab-kj7c0WBg1kO9-82" value="Current Units" style="text;strokeColor=none;fillColor=none;align=left;verticalAlign=middle;spacingLeft=4;spacingRight=4;overflow=hidden;points=[[0,0.5],[1,0.5]];portConstraint=eastwest;rotatable=0;whiteSpace=wrap;html=1;" vertex="1" parent="viviDab-kj7c0WBg1kO9-81">
          <mxGeometry y="30" width="140" height="30" as="geometry" />
        </mxCell>
        <mxCell id="viviDab-kj7c0WBg1kO9-83" value="Units Purchased" style="text;strokeColor=none;fillColor=none;align=left;verticalAlign=middle;spacingLeft=4;spacingRight=4;overflow=hidden;points=[[0,0.5],[1,0.5]];portConstraint=eastwest;rotatable=0;whiteSpace=wrap;html=1;" vertex="1" parent="viviDab-kj7c0WBg1kO9-81">
          <mxGeometry y="60" width="140" height="30" as="geometry" />
        </mxCell>
        <mxCell id="viviDab-kj7c0WBg1kO9-106" value="Back" style="text;strokeColor=none;fillColor=none;align=left;verticalAlign=middle;spacingLeft=4;spacingRight=4;overflow=hidden;points=[[0,0.5],[1,0.5]];portConstraint=eastwest;rotatable=0;whiteSpace=wrap;html=1;" vertex="1" parent="viviDab-kj7c0WBg1kO9-81">
          <mxGeometry y="90" width="140" height="30" as="geometry" />
        </mxCell>
        <mxCell id="viviDab-kj7c0WBg1kO9-88" value="No" style="edgeStyle=orthogonalEdgeStyle;rounded=0;html=1;jettySize=auto;orthogonalLoop=1;endArrow=block;endFill=0;endSize=8;strokeWidth=1;shadow=0;entryX=0;entryY=0.5;entryDx=0;entryDy=0;align=center;textOpacity=0;" edge="1" parent="WIyWlLk6GJQsqaUBKTNV-1" target="viviDab-kj7c0WBg1kO9-89" source="viviDab-kj7c0WBg1kO9-81">
          <mxGeometry x="0.0133" y="10" relative="1" as="geometry">
            <mxPoint as="offset" />
            <mxPoint x="1420" y="640" as="sourcePoint" />
            <mxPoint x="1360" y="405" as="targetPoint" />
          </mxGeometry>
        </mxCell>
        <mxCell id="viviDab-kj7c0WBg1kO9-89" value="Input option&lt;div&gt;from the list&lt;/div&gt;" style="shape=parallelogram;perimeter=parallelogramPerimeter;whiteSpace=wrap;html=1;fixedSize=1;shadow=0;strokeWidth=1;spacing=6;spacingTop=-4;" vertex="1" parent="WIyWlLk6GJQsqaUBKTNV-1">
          <mxGeometry x="1330" y="630" width="120" height="60" as="geometry" />
        </mxCell>
        <mxCell id="viviDab-kj7c0WBg1kO9-90" value="Add entry to the user file" style="rounded=0;whiteSpace=wrap;html=1;" vertex="1" parent="WIyWlLk6GJQsqaUBKTNV-1">
          <mxGeometry x="1970" y="630" width="120" height="60" as="geometry" />
        </mxCell>
        <mxCell id="viviDab-kj7c0WBg1kO9-91" value="No" style="edgeStyle=orthogonalEdgeStyle;rounded=0;html=1;jettySize=auto;orthogonalLoop=1;endArrow=block;endFill=0;endSize=8;strokeWidth=1;shadow=0;align=center;textOpacity=0;entryX=0;entryY=0.5;entryDx=0;entryDy=0;exitX=1;exitY=0.5;exitDx=0;exitDy=0;" edge="1" parent="WIyWlLk6GJQsqaUBKTNV-1" source="viviDab-kj7c0WBg1kO9-94" target="viviDab-kj7c0WBg1kO9-98">
          <mxGeometry x="0.0133" y="10" relative="1" as="geometry">
            <mxPoint as="offset" />
            <mxPoint x="1510" y="665" as="sourcePoint" />
            <mxPoint x="1181" y="545" as="targetPoint" />
          </mxGeometry>
        </mxCell>
        <mxCell id="viviDab-kj7c0WBg1kO9-93" value="" style="edgeStyle=orthogonalEdgeStyle;rounded=0;html=1;jettySize=auto;orthogonalLoop=1;endArrow=block;endFill=0;endSize=8;strokeWidth=1;shadow=0;align=center;textOpacity=0;entryX=0;entryY=0.5;entryDx=0;entryDy=0;exitX=1;exitY=0.5;exitDx=0;exitDy=0;" edge="1" parent="WIyWlLk6GJQsqaUBKTNV-1" source="viviDab-kj7c0WBg1kO9-89" target="viviDab-kj7c0WBg1kO9-92">
          <mxGeometry x="0.0133" y="10" relative="1" as="geometry">
            <mxPoint as="offset" />
            <mxPoint x="1450" y="585" as="sourcePoint" />
            <mxPoint x="1880" y="585" as="targetPoint" />
          </mxGeometry>
        </mxCell>
        <mxCell id="viviDab-kj7c0WBg1kO9-92" value="Output Capture&lt;div&gt;message&lt;/div&gt;" style="shape=parallelogram;perimeter=parallelogramPerimeter;whiteSpace=wrap;html=1;fixedSize=1;shadow=0;strokeWidth=1;spacing=6;spacingTop=-4;" vertex="1" parent="WIyWlLk6GJQsqaUBKTNV-1">
          <mxGeometry x="1480" y="630" width="120" height="60" as="geometry" />
        </mxCell>
        <mxCell id="viviDab-kj7c0WBg1kO9-95" value="" style="edgeStyle=orthogonalEdgeStyle;rounded=0;html=1;jettySize=auto;orthogonalLoop=1;endArrow=block;endFill=0;endSize=8;strokeWidth=1;shadow=0;align=center;textOpacity=0;entryX=0;entryY=0.5;entryDx=0;entryDy=0;exitX=1;exitY=0.5;exitDx=0;exitDy=0;" edge="1" parent="WIyWlLk6GJQsqaUBKTNV-1" source="viviDab-kj7c0WBg1kO9-92" target="viviDab-kj7c0WBg1kO9-94">
          <mxGeometry x="0.0133" y="10" relative="1" as="geometry">
            <mxPoint as="offset" />
            <mxPoint x="1600" y="585" as="sourcePoint" />
            <mxPoint x="1880" y="585" as="targetPoint" />
          </mxGeometry>
        </mxCell>
        <mxCell id="viviDab-kj7c0WBg1kO9-94" value="Input units" style="shape=parallelogram;perimeter=parallelogramPerimeter;whiteSpace=wrap;html=1;fixedSize=1;shadow=0;strokeWidth=1;spacing=6;spacingTop=-4;" vertex="1" parent="WIyWlLk6GJQsqaUBKTNV-1">
          <mxGeometry x="1630" y="630" width="120" height="60" as="geometry" />
        </mxCell>
        <mxCell id="viviDab-kj7c0WBg1kO9-96" value="Output&lt;div&gt;Sucessfull&lt;div&gt;&lt;span style=&quot;background-color: initial;&quot;&gt;message&lt;/span&gt;&lt;/div&gt;&lt;/div&gt;" style="shape=parallelogram;perimeter=parallelogramPerimeter;whiteSpace=wrap;html=1;fixedSize=1;shadow=0;strokeWidth=1;spacing=6;spacingTop=-4;" vertex="1" parent="WIyWlLk6GJQsqaUBKTNV-1">
          <mxGeometry x="1970" y="760" width="120" height="60" as="geometry" />
        </mxCell>
        <mxCell id="viviDab-kj7c0WBg1kO9-97" value="" style="edgeStyle=orthogonalEdgeStyle;rounded=0;html=1;jettySize=auto;orthogonalLoop=1;endArrow=block;endFill=0;endSize=8;strokeWidth=1;shadow=0;align=center;textOpacity=0;entryX=0.5;entryY=0;entryDx=0;entryDy=0;exitX=0.5;exitY=1;exitDx=0;exitDy=0;" edge="1" parent="WIyWlLk6GJQsqaUBKTNV-1" source="viviDab-kj7c0WBg1kO9-90" target="viviDab-kj7c0WBg1kO9-96">
          <mxGeometry x="0.0133" y="10" relative="1" as="geometry">
            <mxPoint as="offset" />
            <mxPoint x="1600" y="670" as="sourcePoint" />
            <mxPoint x="1650" y="670" as="targetPoint" />
          </mxGeometry>
        </mxCell>
        <mxCell id="viviDab-kj7c0WBg1kO9-98" value="Is valid input" style="rhombus;whiteSpace=wrap;html=1;shadow=0;fontFamily=Helvetica;fontSize=12;align=center;strokeWidth=1;spacing=6;spacingTop=-4;" vertex="1" parent="WIyWlLk6GJQsqaUBKTNV-1">
          <mxGeometry x="1780" y="605" width="160" height="110" as="geometry" />
        </mxCell>
        <mxCell id="viviDab-kj7c0WBg1kO9-99" value="Yes" style="edgeStyle=orthogonalEdgeStyle;rounded=0;html=1;jettySize=auto;orthogonalLoop=1;fontSize=11;endArrow=block;endFill=0;endSize=8;strokeWidth=1;shadow=0;labelBackgroundColor=none;entryX=0;entryY=0.5;entryDx=0;entryDy=0;exitX=1;exitY=0.5;exitDx=0;exitDy=0;" edge="1" parent="WIyWlLk6GJQsqaUBKTNV-1" source="viviDab-kj7c0WBg1kO9-98" target="viviDab-kj7c0WBg1kO9-90">
          <mxGeometry x="-0.3333" y="15" relative="1" as="geometry">
            <mxPoint as="offset" />
            <mxPoint x="1340" y="885" as="sourcePoint" />
            <mxPoint x="1060" y="575" as="targetPoint" />
          </mxGeometry>
        </mxCell>
        <mxCell id="viviDab-kj7c0WBg1kO9-101" value="Output error&lt;div&gt;&lt;div&gt;&lt;span style=&quot;background-color: initial;&quot;&gt;message&lt;/span&gt;&lt;/div&gt;&lt;/div&gt;" style="shape=parallelogram;perimeter=parallelogramPerimeter;whiteSpace=wrap;html=1;fixedSize=1;shadow=0;strokeWidth=1;spacing=6;spacingTop=-4;fillColor=#ffe6cc;strokeColor=#d79b00;" vertex="1" parent="WIyWlLk6GJQsqaUBKTNV-1">
          <mxGeometry x="1800" y="475" width="120" height="60" as="geometry" />
        </mxCell>
        <mxCell id="viviDab-kj7c0WBg1kO9-103" value="No" style="edgeStyle=orthogonalEdgeStyle;rounded=0;html=1;jettySize=auto;orthogonalLoop=1;fontSize=11;endArrow=block;endFill=0;endSize=8;strokeWidth=1;shadow=0;labelBackgroundColor=none;entryX=0.5;entryY=1;entryDx=0;entryDy=0;exitX=0.5;exitY=0;exitDx=0;exitDy=0;" edge="1" parent="WIyWlLk6GJQsqaUBKTNV-1" target="viviDab-kj7c0WBg1kO9-101" source="viviDab-kj7c0WBg1kO9-98">
          <mxGeometry x="-0.3333" y="15" relative="1" as="geometry">
            <mxPoint as="offset" />
            <mxPoint x="1850" y="425" as="sourcePoint" />
            <mxPoint x="1880" y="425" as="targetPoint" />
          </mxGeometry>
        </mxCell>
        <mxCell id="viviDab-kj7c0WBg1kO9-104" value="" style="edgeStyle=orthogonalEdgeStyle;rounded=0;html=1;jettySize=auto;orthogonalLoop=1;endArrow=block;endFill=0;endSize=8;strokeWidth=1;shadow=0;align=center;textOpacity=0;entryX=0.5;entryY=0;entryDx=0;entryDy=0;exitX=0;exitY=0.5;exitDx=0;exitDy=0;" edge="1" parent="WIyWlLk6GJQsqaUBKTNV-1" source="viviDab-kj7c0WBg1kO9-101" target="viviDab-kj7c0WBg1kO9-94">
          <mxGeometry x="0.0133" y="10" relative="1" as="geometry">
            <mxPoint as="offset" />
            <mxPoint x="1600" y="670" as="sourcePoint" />
            <mxPoint x="1650" y="670" as="targetPoint" />
          </mxGeometry>
        </mxCell>
        <mxCell id="viviDab-kj7c0WBg1kO9-105" value="" style="edgeStyle=orthogonalEdgeStyle;rounded=0;html=1;jettySize=auto;orthogonalLoop=1;endArrow=block;endFill=0;endSize=8;strokeWidth=1;shadow=0;align=center;textOpacity=0;exitX=0;exitY=0.5;exitDx=0;exitDy=0;" edge="1" parent="WIyWlLk6GJQsqaUBKTNV-1" source="viviDab-kj7c0WBg1kO9-96" target="viviDab-kj7c0WBg1kO9-81">
          <mxGeometry x="0.0133" y="10" relative="1" as="geometry">
            <mxPoint as="offset" />
            <mxPoint x="1820" y="515" as="sourcePoint" />
            <mxPoint x="1700" y="640" as="targetPoint" />
          </mxGeometry>
        </mxCell>
        <mxCell id="viviDab-kj7c0WBg1kO9-108" value="Retreve entries" style="rounded=0;whiteSpace=wrap;html=1;" vertex="1" parent="WIyWlLk6GJQsqaUBKTNV-1">
          <mxGeometry x="1060" y="890" width="120" height="60" as="geometry" />
        </mxCell>
        <mxCell id="viviDab-kj7c0WBg1kO9-109" value="Yes" style="edgeStyle=orthogonalEdgeStyle;rounded=0;html=1;jettySize=auto;orthogonalLoop=1;fontSize=11;endArrow=block;endFill=0;endSize=8;strokeWidth=1;shadow=0;labelBackgroundColor=none;entryX=0;entryY=0.5;entryDx=0;entryDy=0;exitX=1;exitY=0.5;exitDx=0;exitDy=0;" edge="1" parent="WIyWlLk6GJQsqaUBKTNV-1" source="viviDab-kj7c0WBg1kO9-54" target="viviDab-kj7c0WBg1kO9-108">
          <mxGeometry y="15" relative="1" as="geometry">
            <mxPoint as="offset" />
            <mxPoint x="1020" y="800" as="sourcePoint" />
            <mxPoint x="1060" y="575" as="targetPoint" />
          </mxGeometry>
        </mxCell>
        <mxCell id="viviDab-kj7c0WBg1kO9-110" value="Outpu Hustory" style="shape=parallelogram;perimeter=parallelogramPerimeter;whiteSpace=wrap;html=1;fixedSize=1;shadow=0;strokeWidth=1;spacing=6;spacingTop=-4;" vertex="1" parent="WIyWlLk6GJQsqaUBKTNV-1">
          <mxGeometry x="1230" y="890" width="120" height="60" as="geometry" />
        </mxCell>
        <mxCell id="viviDab-kj7c0WBg1kO9-111" value="" style="edgeStyle=orthogonalEdgeStyle;rounded=0;html=1;jettySize=auto;orthogonalLoop=1;endArrow=block;endFill=0;endSize=8;strokeWidth=1;shadow=0;align=center;textOpacity=0;entryX=0;entryY=0.5;entryDx=0;entryDy=0;exitX=1;exitY=0.5;exitDx=0;exitDy=0;" edge="1" parent="WIyWlLk6GJQsqaUBKTNV-1" source="viviDab-kj7c0WBg1kO9-108" target="viviDab-kj7c0WBg1kO9-110">
          <mxGeometry x="0.0133" y="10" relative="1" as="geometry">
            <mxPoint as="offset" />
            <mxPoint x="1450" y="670" as="sourcePoint" />
            <mxPoint x="1500" y="670" as="targetPoint" />
          </mxGeometry>
        </mxCell>
        <mxCell id="viviDab-kj7c0WBg1kO9-112" value="" style="edgeStyle=orthogonalEdgeStyle;rounded=0;html=1;jettySize=auto;orthogonalLoop=1;endArrow=block;endFill=0;endSize=8;strokeWidth=1;shadow=0;align=center;textOpacity=0;" edge="1" parent="WIyWlLk6GJQsqaUBKTNV-1" source="viviDab-kj7c0WBg1kO9-113" target="viviDab-kj7c0WBg1kO9-46">
          <mxGeometry x="0.0133" y="10" relative="1" as="geometry">
            <mxPoint as="offset" />
            <mxPoint x="1821" y="1150" as="sourcePoint" />
            <mxPoint x="1110" y="685" as="targetPoint" />
            <Array as="points" />
          </mxGeometry>
        </mxCell>
        <mxCell id="viviDab-kj7c0WBg1kO9-113" value="BACK&lt;div&gt;OPTION&lt;/div&gt;" style="ellipse;shape=cloud;whiteSpace=wrap;html=1;fillColor=#dae8fc;strokeColor=#6c8ebf;" vertex="1" parent="WIyWlLk6GJQsqaUBKTNV-1">
          <mxGeometry x="790" y="465" width="120" height="80" as="geometry" />
        </mxCell>
        <mxCell id="viviDab-kj7c0WBg1kO9-115" value="BACK&lt;div&gt;OPTION&lt;/div&gt;" style="ellipse;shape=cloud;whiteSpace=wrap;html=1;fillColor=#dae8fc;strokeColor=#6c8ebf;" vertex="1" parent="WIyWlLk6GJQsqaUBKTNV-1">
          <mxGeometry x="1430" y="880" width="120" height="80" as="geometry" />
        </mxCell>
        <mxCell id="viviDab-kj7c0WBg1kO9-116" value="" style="edgeStyle=orthogonalEdgeStyle;rounded=0;html=1;jettySize=auto;orthogonalLoop=1;endArrow=block;endFill=0;endSize=8;strokeWidth=1;shadow=0;align=center;textOpacity=0;" edge="1" parent="WIyWlLk6GJQsqaUBKTNV-1" source="viviDab-kj7c0WBg1kO9-106" target="viviDab-kj7c0WBg1kO9-115">
          <mxGeometry x="0.0133" y="10" relative="1" as="geometry">
            <mxPoint as="offset" />
            <mxPoint x="1231" y="575" as="sourcePoint" />
            <mxPoint x="1231" y="625" as="targetPoint" />
          </mxGeometry>
        </mxCell>
        <mxCell id="viviDab-kj7c0WBg1kO9-117" value="" style="edgeStyle=orthogonalEdgeStyle;rounded=0;html=1;jettySize=auto;orthogonalLoop=1;endArrow=block;endFill=0;endSize=8;strokeWidth=1;shadow=0;align=center;textOpacity=0;" edge="1" parent="WIyWlLk6GJQsqaUBKTNV-1" source="viviDab-kj7c0WBg1kO9-110" target="viviDab-kj7c0WBg1kO9-115">
          <mxGeometry x="0.0133" y="10" relative="1" as="geometry">
            <mxPoint as="offset" />
            <mxPoint x="1301" y="730" as="sourcePoint" />
            <mxPoint x="1500" y="885" as="targetPoint" />
          </mxGeometry>
        </mxCell>
        <mxCell id="viviDab-kj7c0WBg1kO9-118" value="BACK&lt;div&gt;OPTION&lt;/div&gt;" style="ellipse;shape=cloud;whiteSpace=wrap;html=1;fillColor=#f8cecc;strokeColor=#b85450;" vertex="1" parent="WIyWlLk6GJQsqaUBKTNV-1">
          <mxGeometry x="220" y="455" width="120" height="80" as="geometry" />
        </mxCell>
        <mxCell id="viviDab-kj7c0WBg1kO9-119" value="Yes" style="edgeStyle=orthogonalEdgeStyle;rounded=0;html=1;jettySize=auto;orthogonalLoop=1;fontSize=11;endArrow=block;endFill=0;endSize=8;strokeWidth=1;shadow=0;labelBackgroundColor=none;entryX=1;entryY=0.5;entryDx=0;entryDy=0;exitX=1;exitY=0.5;exitDx=0;exitDy=0;" edge="1" parent="WIyWlLk6GJQsqaUBKTNV-1" source="viviDab-kj7c0WBg1kO9-67" target="viviDab-kj7c0WBg1kO9-24">
          <mxGeometry y="15" relative="1" as="geometry">
            <mxPoint as="offset" />
            <mxPoint x="1020" y="930" as="sourcePoint" />
            <mxPoint x="1070" y="930" as="targetPoint" />
            <Array as="points">
              <mxPoint x="1050" y="1180" />
              <mxPoint x="1050" y="1425" />
              <mxPoint x="570" y="1425" />
              <mxPoint x="570" y="1025" />
            </Array>
          </mxGeometry>
        </mxCell>
        <mxCell id="viviDab-kj7c0WBg1kO9-120" value="BACK&lt;div&gt;OPTION&lt;/div&gt;" style="ellipse;shape=cloud;whiteSpace=wrap;html=1;fillColor=#f8cecc;strokeColor=#b85450;" vertex="1" parent="WIyWlLk6GJQsqaUBKTNV-1">
          <mxGeometry x="790" y="615" width="120" height="80" as="geometry" />
        </mxCell>
        <mxCell id="viviDab-kj7c0WBg1kO9-121" value="No" style="edgeStyle=orthogonalEdgeStyle;rounded=0;html=1;jettySize=auto;orthogonalLoop=1;fontSize=11;endArrow=block;endFill=0;endSize=8;strokeWidth=1;shadow=0;labelBackgroundColor=none;textOpacity=0;" edge="1" parent="WIyWlLk6GJQsqaUBKTNV-1" source="viviDab-kj7c0WBg1kO9-49" target="viviDab-kj7c0WBg1kO9-120">
          <mxGeometry y="10" relative="1" as="geometry">
            <mxPoint as="offset" />
            <mxPoint x="510" y="795" as="sourcePoint" />
            <mxPoint x="510" y="585" as="targetPoint" />
            <Array as="points">
              <mxPoint x="760" y="790" />
              <mxPoint x="760" y="755" />
              <mxPoint x="850" y="755" />
            </Array>
          </mxGeometry>
        </mxCell>
        <mxCell id="viviDab-kj7c0WBg1kO9-122" value="Create&lt;div&gt;Settings menu&lt;/div&gt;" style="rounded=0;whiteSpace=wrap;html=1;" vertex="1" parent="WIyWlLk6GJQsqaUBKTNV-1">
          <mxGeometry x="1070" y="1020" width="120" height="60" as="geometry" />
        </mxCell>
        <mxCell id="viviDab-kj7c0WBg1kO9-123" value="No" style="edgeStyle=orthogonalEdgeStyle;rounded=0;html=1;jettySize=auto;orthogonalLoop=1;endArrow=block;endFill=0;endSize=8;strokeWidth=1;shadow=0;exitX=1;exitY=0.5;exitDx=0;exitDy=0;align=center;textOpacity=0;entryX=0;entryY=0.5;entryDx=0;entryDy=0;" edge="1" parent="WIyWlLk6GJQsqaUBKTNV-1" source="viviDab-kj7c0WBg1kO9-122" target="viviDab-kj7c0WBg1kO9-124">
          <mxGeometry x="0.0133" y="10" relative="1" as="geometry">
            <mxPoint as="offset" />
            <mxPoint x="830" y="1265" as="sourcePoint" />
            <mxPoint x="1140" y="1035" as="targetPoint" />
          </mxGeometry>
        </mxCell>
        <mxCell id="viviDab-kj7c0WBg1kO9-124" value="Output the&lt;div&gt;Settings menu&lt;/div&gt;" style="shape=parallelogram;perimeter=parallelogramPerimeter;whiteSpace=wrap;html=1;fixedSize=1;shadow=0;strokeWidth=1;spacing=6;spacingTop=-4;" vertex="1" parent="WIyWlLk6GJQsqaUBKTNV-1">
          <mxGeometry x="1241" y="1020" width="120" height="60" as="geometry" />
        </mxCell>
        <mxCell id="viviDab-kj7c0WBg1kO9-125" value="" style="edgeStyle=orthogonalEdgeStyle;rounded=0;html=1;jettySize=auto;orthogonalLoop=1;endArrow=block;endFill=0;endSize=8;strokeWidth=1;shadow=0;entryX=0.5;entryY=0;entryDx=0;entryDy=0;exitX=0.5;exitY=1;exitDx=0;exitDy=0;align=center;textOpacity=0;" edge="1" parent="WIyWlLk6GJQsqaUBKTNV-1" source="viviDab-kj7c0WBg1kO9-124" target="viviDab-kj7c0WBg1kO9-126">
          <mxGeometry x="0.0133" y="10" relative="1" as="geometry">
            <mxPoint as="offset" />
            <mxPoint x="1410" y="1105" as="sourcePoint" />
            <mxPoint x="1410" y="1400" as="targetPoint" />
          </mxGeometry>
        </mxCell>
        <mxCell id="viviDab-kj7c0WBg1kO9-126" value="Settings" style="swimlane;fontStyle=0;childLayout=stackLayout;horizontal=1;startSize=30;horizontalStack=0;resizeParent=1;resizeParentMax=0;resizeLast=0;collapsible=1;marginBottom=0;whiteSpace=wrap;html=1;" vertex="1" parent="WIyWlLk6GJQsqaUBKTNV-1">
          <mxGeometry x="1110" y="1160" width="140" height="120" as="geometry" />
        </mxCell>
        <mxCell id="viviDab-kj7c0WBg1kO9-127" value="Data Management" style="text;strokeColor=none;fillColor=none;align=left;verticalAlign=middle;spacingLeft=4;spacingRight=4;overflow=hidden;points=[[0,0.5],[1,0.5]];portConstraint=eastwest;rotatable=0;whiteSpace=wrap;html=1;" vertex="1" parent="viviDab-kj7c0WBg1kO9-126">
          <mxGeometry y="30" width="140" height="30" as="geometry" />
        </mxCell>
        <mxCell id="viviDab-kj7c0WBg1kO9-128" value="Notification Settings" style="text;strokeColor=none;fillColor=none;align=left;verticalAlign=middle;spacingLeft=4;spacingRight=4;overflow=hidden;points=[[0,0.5],[1,0.5]];portConstraint=eastwest;rotatable=0;whiteSpace=wrap;html=1;" vertex="1" parent="viviDab-kj7c0WBg1kO9-126">
          <mxGeometry y="60" width="140" height="30" as="geometry" />
        </mxCell>
        <mxCell id="viviDab-kj7c0WBg1kO9-129" value="Exit Settings" style="text;strokeColor=none;fillColor=none;align=left;verticalAlign=middle;spacingLeft=4;spacingRight=4;overflow=hidden;points=[[0,0.5],[1,0.5]];portConstraint=eastwest;rotatable=0;whiteSpace=wrap;html=1;" vertex="1" parent="viviDab-kj7c0WBg1kO9-126">
          <mxGeometry y="90" width="140" height="30" as="geometry" />
        </mxCell>
        <mxCell id="viviDab-kj7c0WBg1kO9-130" value="No" style="edgeStyle=orthogonalEdgeStyle;rounded=0;html=1;jettySize=auto;orthogonalLoop=1;endArrow=block;endFill=0;endSize=8;strokeWidth=1;shadow=0;align=center;textOpacity=0;" edge="1" parent="WIyWlLk6GJQsqaUBKTNV-1" source="viviDab-kj7c0WBg1kO9-126" target="viviDab-kj7c0WBg1kO9-131">
          <mxGeometry x="0.0133" y="10" relative="1" as="geometry">
            <mxPoint as="offset" />
            <mxPoint x="1500" y="1160" as="sourcePoint" />
            <mxPoint x="1440" y="925" as="targetPoint" />
          </mxGeometry>
        </mxCell>
        <mxCell id="viviDab-kj7c0WBg1kO9-135" value="" style="edgeStyle=orthogonalEdgeStyle;rounded=0;orthogonalLoop=1;jettySize=auto;html=1;endArrow=block;endFill=0;" edge="1" parent="WIyWlLk6GJQsqaUBKTNV-1" source="viviDab-kj7c0WBg1kO9-131" target="viviDab-kj7c0WBg1kO9-136">
          <mxGeometry relative="1" as="geometry" />
        </mxCell>
        <mxCell id="viviDab-kj7c0WBg1kO9-131" value="Input option&lt;div&gt;from the list&lt;/div&gt;" style="shape=parallelogram;perimeter=parallelogramPerimeter;whiteSpace=wrap;html=1;fixedSize=1;shadow=0;strokeWidth=1;spacing=6;spacingTop=-4;" vertex="1" parent="WIyWlLk6GJQsqaUBKTNV-1">
          <mxGeometry x="1270" y="1320" width="120" height="60" as="geometry" />
        </mxCell>
        <mxCell id="viviDab-kj7c0WBg1kO9-132" value="Yes" style="edgeStyle=orthogonalEdgeStyle;rounded=0;html=1;jettySize=auto;orthogonalLoop=1;fontSize=11;endArrow=block;endFill=0;endSize=8;strokeWidth=1;shadow=0;labelBackgroundColor=none;entryX=0;entryY=0.5;entryDx=0;entryDy=0;exitX=1;exitY=0.5;exitDx=0;exitDy=0;" edge="1" parent="WIyWlLk6GJQsqaUBKTNV-1" source="viviDab-kj7c0WBg1kO9-56" target="viviDab-kj7c0WBg1kO9-122">
          <mxGeometry y="15" relative="1" as="geometry">
            <mxPoint as="offset" />
            <mxPoint x="1020" y="930" as="sourcePoint" />
            <mxPoint x="1070" y="930" as="targetPoint" />
          </mxGeometry>
        </mxCell>
        <mxCell id="viviDab-kj7c0WBg1kO9-133" value="" style="edgeStyle=orthogonalEdgeStyle;rounded=0;html=1;jettySize=auto;orthogonalLoop=1;endArrow=block;endFill=0;endSize=8;strokeWidth=1;shadow=0;align=center;textOpacity=0;" edge="1" parent="WIyWlLk6GJQsqaUBKTNV-1" source="viviDab-kj7c0WBg1kO9-129" target="viviDab-kj7c0WBg1kO9-115">
          <mxGeometry x="0.0133" y="10" relative="1" as="geometry">
            <mxPoint as="offset" />
            <mxPoint x="1301" y="730" as="sourcePoint" />
            <mxPoint x="1500" y="890" as="targetPoint" />
            <Array as="points">
              <mxPoint x="1290" y="1265" />
              <mxPoint x="1290" y="1160" />
              <mxPoint x="1640" y="1160" />
              <mxPoint x="1640" y="920" />
            </Array>
          </mxGeometry>
        </mxCell>
        <mxCell id="viviDab-kj7c0WBg1kO9-134" value="Create&lt;div&gt;Data Management menu&lt;/div&gt;" style="whiteSpace=wrap;html=1;shadow=0;strokeWidth=1;spacing=6;spacingTop=-4;" vertex="1" parent="WIyWlLk6GJQsqaUBKTNV-1">
          <mxGeometry x="1700" y="1255" width="120" height="60" as="geometry" />
        </mxCell>
        <mxCell id="viviDab-kj7c0WBg1kO9-136" value="Was the&lt;div&gt;Data&amp;nbsp;&lt;span style=&quot;background-color: initial;&quot;&gt;Management&amp;nbsp;&lt;/span&gt;&lt;div&gt;&lt;div&gt;option selected&lt;/div&gt;&lt;/div&gt;&lt;/div&gt;" style="rhombus;whiteSpace=wrap;html=1;shadow=0;fontFamily=Helvetica;fontSize=12;align=center;strokeWidth=1;spacing=6;spacingTop=-4;" vertex="1" parent="WIyWlLk6GJQsqaUBKTNV-1">
          <mxGeometry x="1470" y="1230" width="160" height="110" as="geometry" />
        </mxCell>
        <mxCell id="viviDab-kj7c0WBg1kO9-137" value="Was the&amp;nbsp;&lt;div&gt;Notification Settings&lt;/div&gt;&lt;div&gt;&lt;span style=&quot;background-color: initial;&quot;&gt;option&amp;nbsp;&lt;/span&gt;&lt;span style=&quot;background-color: initial;&quot;&gt;selected&lt;/span&gt;&lt;/div&gt;" style="rhombus;whiteSpace=wrap;html=1;shadow=0;fontFamily=Helvetica;fontSize=12;align=center;strokeWidth=1;spacing=6;spacingTop=-4;" vertex="1" parent="WIyWlLk6GJQsqaUBKTNV-1">
          <mxGeometry x="1470" y="1360" width="160" height="110" as="geometry" />
        </mxCell>
        <mxCell id="viviDab-kj7c0WBg1kO9-138" value="" style="endArrow=none;html=1;rounded=0;entryX=0.5;entryY=1;entryDx=0;entryDy=0;exitX=0.5;exitY=0;exitDx=0;exitDy=0;" edge="1" parent="WIyWlLk6GJQsqaUBKTNV-1" source="viviDab-kj7c0WBg1kO9-137" target="viviDab-kj7c0WBg1kO9-136">
          <mxGeometry width="50" height="50" relative="1" as="geometry">
            <mxPoint x="940" y="1285" as="sourcePoint" />
            <mxPoint x="940" y="1265" as="targetPoint" />
          </mxGeometry>
        </mxCell>
        <mxCell id="viviDab-kj7c0WBg1kO9-139" value="" style="edgeStyle=orthogonalEdgeStyle;rounded=0;orthogonalLoop=1;jettySize=auto;html=1;endArrow=block;endFill=0;exitX=1;exitY=0.5;exitDx=0;exitDy=0;" edge="1" parent="WIyWlLk6GJQsqaUBKTNV-1" source="viviDab-kj7c0WBg1kO9-131" target="viviDab-kj7c0WBg1kO9-137">
          <mxGeometry relative="1" as="geometry">
            <mxPoint x="1390" y="1360" as="sourcePoint" />
            <mxPoint x="1480" y="1295" as="targetPoint" />
          </mxGeometry>
        </mxCell>
        <mxCell id="viviDab-kj7c0WBg1kO9-140" value="No" style="edgeStyle=orthogonalEdgeStyle;rounded=0;html=1;jettySize=auto;orthogonalLoop=1;fontSize=11;endArrow=block;endFill=0;endSize=8;strokeWidth=1;shadow=0;labelBackgroundColor=none;entryX=0.5;entryY=0;entryDx=0;entryDy=0;exitX=0.5;exitY=1;exitDx=0;exitDy=0;" edge="1" parent="WIyWlLk6GJQsqaUBKTNV-1" target="viviDab-kj7c0WBg1kO9-141" source="viviDab-kj7c0WBg1kO9-137">
          <mxGeometry y="10" relative="1" as="geometry">
            <mxPoint as="offset" />
            <mxPoint x="1600" y="1490" as="sourcePoint" />
            <mxPoint x="1550" y="1555" as="targetPoint" />
          </mxGeometry>
        </mxCell>
        <mxCell id="viviDab-kj7c0WBg1kO9-141" value="Output error&lt;div&gt;message&lt;/div&gt;" style="shape=parallelogram;perimeter=parallelogramPerimeter;whiteSpace=wrap;html=1;fixedSize=1;shadow=0;strokeWidth=1;spacing=6;spacingTop=-4;fillColor=#ffe6cc;strokeColor=#d79b00;" vertex="1" parent="WIyWlLk6GJQsqaUBKTNV-1">
          <mxGeometry x="1490" y="1530" width="120" height="60" as="geometry" />
        </mxCell>
        <mxCell id="viviDab-kj7c0WBg1kO9-142" value="No" style="edgeStyle=orthogonalEdgeStyle;rounded=0;html=1;jettySize=auto;orthogonalLoop=1;endArrow=block;endFill=0;endSize=8;strokeWidth=1;shadow=0;align=center;textOpacity=0;" edge="1" parent="WIyWlLk6GJQsqaUBKTNV-1" source="viviDab-kj7c0WBg1kO9-141" target="viviDab-kj7c0WBg1kO9-131">
          <mxGeometry x="0.0133" y="10" relative="1" as="geometry">
            <mxPoint as="offset" />
            <mxPoint x="1271" y="1240" as="sourcePoint" />
            <mxPoint x="1340" y="1330" as="targetPoint" />
          </mxGeometry>
        </mxCell>
        <mxCell id="viviDab-kj7c0WBg1kO9-143" value="" style="edgeStyle=orthogonalEdgeStyle;rounded=0;html=1;jettySize=auto;orthogonalLoop=1;endArrow=block;endFill=0;endSize=8;strokeWidth=1;shadow=0;entryX=0;entryY=0.5;entryDx=0;entryDy=0;exitX=1;exitY=0.5;exitDx=0;exitDy=0;align=center;textOpacity=0;" edge="1" parent="WIyWlLk6GJQsqaUBKTNV-1" source="viviDab-kj7c0WBg1kO9-136" target="viviDab-kj7c0WBg1kO9-134">
          <mxGeometry x="0.0133" y="10" relative="1" as="geometry">
            <mxPoint as="offset" />
            <mxPoint x="1201" y="1125" as="sourcePoint" />
            <mxPoint x="1201" y="1180" as="targetPoint" />
          </mxGeometry>
        </mxCell>
        <mxCell id="viviDab-kj7c0WBg1kO9-144" value="Create&lt;br&gt;&lt;div&gt;&lt;span style=&quot;background-color: initial;&quot;&gt;Notification Settings&lt;/span&gt;&amp;nbsp;menu&lt;/div&gt;" style="whiteSpace=wrap;html=1;shadow=0;strokeWidth=1;spacing=6;spacingTop=-4;" vertex="1" parent="WIyWlLk6GJQsqaUBKTNV-1">
          <mxGeometry x="1700" y="1385" width="120" height="60" as="geometry" />
        </mxCell>
        <mxCell id="viviDab-kj7c0WBg1kO9-145" value="" style="edgeStyle=orthogonalEdgeStyle;rounded=0;html=1;jettySize=auto;orthogonalLoop=1;endArrow=block;endFill=0;endSize=8;strokeWidth=1;shadow=0;entryX=0;entryY=0.5;entryDx=0;entryDy=0;exitX=1;exitY=0.5;exitDx=0;exitDy=0;align=center;textOpacity=0;" edge="1" parent="WIyWlLk6GJQsqaUBKTNV-1" target="viviDab-kj7c0WBg1kO9-144" source="viviDab-kj7c0WBg1kO9-137">
          <mxGeometry x="0.0133" y="10" relative="1" as="geometry">
            <mxPoint as="offset" />
            <mxPoint x="1630" y="1415" as="sourcePoint" />
            <mxPoint x="1201" y="1310" as="targetPoint" />
          </mxGeometry>
        </mxCell>
        <mxCell id="viviDab-kj7c0WBg1kO9-146" value="Data Management" style="swimlane;fontStyle=0;childLayout=stackLayout;horizontal=1;startSize=30;horizontalStack=0;resizeParent=1;resizeParentMax=0;resizeLast=0;collapsible=1;marginBottom=0;whiteSpace=wrap;html=1;" vertex="1" parent="WIyWlLk6GJQsqaUBKTNV-1">
          <mxGeometry x="1874" y="1055" width="140" height="150" as="geometry" />
        </mxCell>
        <mxCell id="viviDab-kj7c0WBg1kO9-147" value="Clear Data" style="text;strokeColor=none;fillColor=none;align=left;verticalAlign=middle;spacingLeft=4;spacingRight=4;overflow=hidden;points=[[0,0.5],[1,0.5]];portConstraint=eastwest;rotatable=0;whiteSpace=wrap;html=1;" vertex="1" parent="viviDab-kj7c0WBg1kO9-146">
          <mxGeometry y="30" width="140" height="30" as="geometry" />
        </mxCell>
        <mxCell id="viviDab-kj7c0WBg1kO9-148" value="Import" style="text;strokeColor=none;fillColor=none;align=left;verticalAlign=middle;spacingLeft=4;spacingRight=4;overflow=hidden;points=[[0,0.5],[1,0.5]];portConstraint=eastwest;rotatable=0;whiteSpace=wrap;html=1;" vertex="1" parent="viviDab-kj7c0WBg1kO9-146">
          <mxGeometry y="60" width="140" height="30" as="geometry" />
        </mxCell>
        <mxCell id="viviDab-kj7c0WBg1kO9-149" value="Export" style="text;strokeColor=none;fillColor=none;align=left;verticalAlign=middle;spacingLeft=4;spacingRight=4;overflow=hidden;points=[[0,0.5],[1,0.5]];portConstraint=eastwest;rotatable=0;whiteSpace=wrap;html=1;" vertex="1" parent="viviDab-kj7c0WBg1kO9-146">
          <mxGeometry y="90" width="140" height="30" as="geometry" />
        </mxCell>
        <mxCell id="viviDab-kj7c0WBg1kO9-153" value="Back" style="text;strokeColor=none;fillColor=none;align=left;verticalAlign=middle;spacingLeft=4;spacingRight=4;overflow=hidden;points=[[0,0.5],[1,0.5]];portConstraint=eastwest;rotatable=0;whiteSpace=wrap;html=1;" vertex="1" parent="viviDab-kj7c0WBg1kO9-146">
          <mxGeometry y="120" width="140" height="30" as="geometry" />
        </mxCell>
        <mxCell id="viviDab-kj7c0WBg1kO9-150" value="Output the&lt;br&gt;&lt;div&gt;&lt;span style=&quot;background-color: initial;&quot;&gt;Data Management&lt;/span&gt;&lt;/div&gt;&lt;div&gt;menu&lt;/div&gt;" style="shape=parallelogram;perimeter=parallelogramPerimeter;whiteSpace=wrap;html=1;fixedSize=1;shadow=0;strokeWidth=1;spacing=6;spacingTop=-4;" vertex="1" parent="WIyWlLk6GJQsqaUBKTNV-1">
          <mxGeometry x="1878" y="1255" width="132" height="60" as="geometry" />
        </mxCell>
        <mxCell id="viviDab-kj7c0WBg1kO9-151" value="" style="edgeStyle=orthogonalEdgeStyle;rounded=0;html=1;jettySize=auto;orthogonalLoop=1;endArrow=block;endFill=0;endSize=8;strokeWidth=1;shadow=0;align=center;textOpacity=0;" edge="1" parent="WIyWlLk6GJQsqaUBKTNV-1" source="viviDab-kj7c0WBg1kO9-134" target="viviDab-kj7c0WBg1kO9-150">
          <mxGeometry x="0.0133" y="10" relative="1" as="geometry">
            <mxPoint as="offset" />
            <mxPoint x="1640" y="1295" as="sourcePoint" />
            <mxPoint x="1710" y="1295" as="targetPoint" />
          </mxGeometry>
        </mxCell>
        <mxCell id="viviDab-kj7c0WBg1kO9-152" value="" style="edgeStyle=orthogonalEdgeStyle;rounded=0;html=1;jettySize=auto;orthogonalLoop=1;endArrow=block;endFill=0;endSize=8;strokeWidth=1;shadow=0;align=center;textOpacity=0;" edge="1" parent="WIyWlLk6GJQsqaUBKTNV-1" source="viviDab-kj7c0WBg1kO9-150" target="viviDab-kj7c0WBg1kO9-146">
          <mxGeometry x="0.0133" y="10" relative="1" as="geometry">
            <mxPoint as="offset" />
            <mxPoint x="1830" y="1295" as="sourcePoint" />
            <mxPoint x="1898" y="1295" as="targetPoint" />
          </mxGeometry>
        </mxCell>
        <mxCell id="viviDab-kj7c0WBg1kO9-154" value="Notification Settings" style="swimlane;fontStyle=0;childLayout=stackLayout;horizontal=1;startSize=30;horizontalStack=0;resizeParent=1;resizeParentMax=0;resizeLast=0;collapsible=1;marginBottom=0;whiteSpace=wrap;html=1;" vertex="1" parent="WIyWlLk6GJQsqaUBKTNV-1">
          <mxGeometry x="2038" y="1219" width="140" height="120" as="geometry" />
        </mxCell>
        <mxCell id="viviDab-kj7c0WBg1kO9-156" value="Purchase Reminder" style="text;strokeColor=none;fillColor=none;align=left;verticalAlign=middle;spacingLeft=4;spacingRight=4;overflow=hidden;points=[[0,0.5],[1,0.5]];portConstraint=eastwest;rotatable=0;whiteSpace=wrap;html=1;" vertex="1" parent="viviDab-kj7c0WBg1kO9-154">
          <mxGeometry y="30" width="140" height="30" as="geometry" />
        </mxCell>
        <mxCell id="viviDab-kj7c0WBg1kO9-155" value="Low Units Alert" style="text;strokeColor=none;fillColor=none;align=left;verticalAlign=middle;spacingLeft=4;spacingRight=4;overflow=hidden;points=[[0,0.5],[1,0.5]];portConstraint=eastwest;rotatable=0;whiteSpace=wrap;html=1;" vertex="1" parent="viviDab-kj7c0WBg1kO9-154">
          <mxGeometry y="60" width="140" height="30" as="geometry" />
        </mxCell>
        <mxCell id="viviDab-kj7c0WBg1kO9-158" value="Back" style="text;strokeColor=none;fillColor=none;align=left;verticalAlign=middle;spacingLeft=4;spacingRight=4;overflow=hidden;points=[[0,0.5],[1,0.5]];portConstraint=eastwest;rotatable=0;whiteSpace=wrap;html=1;" vertex="1" parent="viviDab-kj7c0WBg1kO9-154">
          <mxGeometry y="90" width="140" height="30" as="geometry" />
        </mxCell>
        <mxCell id="viviDab-kj7c0WBg1kO9-159" value="Output the&lt;br&gt;&lt;div&gt;&lt;span style=&quot;background-color: initial;&quot;&gt;Notification Settings&amp;nbsp;&lt;/span&gt;menu&lt;/div&gt;" style="shape=parallelogram;perimeter=parallelogramPerimeter;whiteSpace=wrap;html=1;fixedSize=1;shadow=0;strokeWidth=1;spacing=6;spacingTop=-4;" vertex="1" parent="WIyWlLk6GJQsqaUBKTNV-1">
          <mxGeometry x="2048" y="1385" width="120" height="60" as="geometry" />
        </mxCell>
        <mxCell id="viviDab-kj7c0WBg1kO9-160" value="" style="edgeStyle=orthogonalEdgeStyle;rounded=0;html=1;jettySize=auto;orthogonalLoop=1;endArrow=block;endFill=0;endSize=8;strokeWidth=1;shadow=0;align=center;textOpacity=0;exitX=1;exitY=0.5;exitDx=0;exitDy=0;" edge="1" parent="WIyWlLk6GJQsqaUBKTNV-1" target="viviDab-kj7c0WBg1kO9-159" source="viviDab-kj7c0WBg1kO9-144">
          <mxGeometry x="0.0133" y="10" relative="1" as="geometry">
            <mxPoint as="offset" />
            <mxPoint x="1990" y="1405" as="sourcePoint" />
            <mxPoint x="1880" y="1415" as="targetPoint" />
          </mxGeometry>
        </mxCell>
        <mxCell id="viviDab-kj7c0WBg1kO9-161" value="" style="edgeStyle=orthogonalEdgeStyle;rounded=0;html=1;jettySize=auto;orthogonalLoop=1;endArrow=block;endFill=0;endSize=8;strokeWidth=1;shadow=0;align=center;textOpacity=0;" edge="1" parent="WIyWlLk6GJQsqaUBKTNV-1" source="viviDab-kj7c0WBg1kO9-159" target="viviDab-kj7c0WBg1kO9-154">
          <mxGeometry x="0.0133" y="10" relative="1" as="geometry">
            <mxPoint as="offset" />
            <mxPoint x="2000" y="1425" as="sourcePoint" />
            <mxPoint x="2068" y="1425" as="targetPoint" />
          </mxGeometry>
        </mxCell>
        <mxCell id="viviDab-kj7c0WBg1kO9-162" value="BACK&lt;div&gt;OPTION&lt;/div&gt;" style="ellipse;shape=cloud;whiteSpace=wrap;html=1;fillColor=#e1d5e7;strokeColor=#9673a6;" vertex="1" parent="WIyWlLk6GJQsqaUBKTNV-1">
          <mxGeometry x="2200" y="1150" width="120" height="80" as="geometry" />
        </mxCell>
        <mxCell id="viviDab-kj7c0WBg1kO9-163" value="" style="edgeStyle=orthogonalEdgeStyle;rounded=0;html=1;jettySize=auto;orthogonalLoop=1;endArrow=block;endFill=0;endSize=8;strokeWidth=1;shadow=0;align=center;textOpacity=0;" edge="1" parent="WIyWlLk6GJQsqaUBKTNV-1" source="viviDab-kj7c0WBg1kO9-158" target="viviDab-kj7c0WBg1kO9-162">
          <mxGeometry x="0.0133" y="10" relative="1" as="geometry">
            <mxPoint as="offset" />
            <mxPoint x="1980" y="1137.5" as="sourcePoint" />
            <mxPoint x="2220" y="832.5" as="targetPoint" />
          </mxGeometry>
        </mxCell>
        <mxCell id="viviDab-kj7c0WBg1kO9-164" value="" style="edgeStyle=orthogonalEdgeStyle;rounded=0;html=1;jettySize=auto;orthogonalLoop=1;endArrow=block;endFill=0;endSize=8;strokeWidth=1;shadow=0;align=center;textOpacity=0;" edge="1" parent="WIyWlLk6GJQsqaUBKTNV-1" source="viviDab-kj7c0WBg1kO9-153" target="viviDab-kj7c0WBg1kO9-162">
          <mxGeometry x="0.0133" y="10" relative="1" as="geometry">
            <mxPoint as="offset" />
            <mxPoint x="2188" y="1334" as="sourcePoint" />
            <mxPoint x="2248" y="1180" as="targetPoint" />
          </mxGeometry>
        </mxCell>
        <mxCell id="viviDab-kj7c0WBg1kO9-165" value="BACK&lt;div&gt;OPTION&lt;/div&gt;" style="ellipse;shape=cloud;whiteSpace=wrap;html=1;fillColor=#e1d5e7;strokeColor=#9673a6;" vertex="1" parent="WIyWlLk6GJQsqaUBKTNV-1">
          <mxGeometry x="1480" y="1010" width="120" height="80" as="geometry" />
        </mxCell>
        <mxCell id="viviDab-kj7c0WBg1kO9-166" value="" style="edgeStyle=orthogonalEdgeStyle;rounded=0;html=1;jettySize=auto;orthogonalLoop=1;endArrow=block;endFill=0;endSize=8;strokeWidth=1;shadow=0;align=center;textOpacity=0;entryX=1;entryY=0.5;entryDx=0;entryDy=0;" edge="1" parent="WIyWlLk6GJQsqaUBKTNV-1" source="viviDab-kj7c0WBg1kO9-165" target="viviDab-kj7c0WBg1kO9-124">
          <mxGeometry x="0.0133" y="10" relative="1" as="geometry">
            <mxPoint as="offset" />
            <mxPoint x="1350" y="930" as="sourcePoint" />
            <mxPoint x="1440" y="930" as="targetPoint" />
          </mxGeometry>
        </mxCell>
      </root>
    </mxGraphModel>
  </diagram>
</mxfile>
